<mxfile host="app.diagrams.net" agent="Mozilla/5.0 (X11; Linux x86_64) AppleWebKit/537.36 (KHTML, like Gecko) Chrome/138.0.0.0 Safari/537.36 Edg/138.0.0.0" version="28.1.1">
  <diagram id="C5RBs43oDa-KdzZeNtuy" name="Page-1">
    <mxGraphModel dx="20021" dy="12490" grid="1" gridSize="10" guides="1" tooltips="1" connect="1" arrows="1" fold="1" page="1" pageScale="1" pageWidth="4681" pageHeight="3300" background="light-dark(#FFFFFF,#FFFFFF)" math="0" shadow="0">
      <root>
        <mxCell id="WIyWlLk6GJQsqaUBKTNV-0" />
        <mxCell id="WIyWlLk6GJQsqaUBKTNV-1" parent="WIyWlLk6GJQsqaUBKTNV-0" />
        <mxCell id="mlQqwofmlEr076EAXyUb-10" style="edgeStyle=orthogonalEdgeStyle;rounded=0;orthogonalLoop=1;jettySize=auto;html=1;labelBackgroundColor=none;strokeColor=light-dark(#736CA8,#009999);fontColor=light-dark(#000000,#000000);strokeWidth=7;" parent="WIyWlLk6GJQsqaUBKTNV-1" source="mlQqwofmlEr076EAXyUb-0" target="mlQqwofmlEr076EAXyUb-4" edge="1">
          <mxGeometry relative="1" as="geometry" />
        </mxCell>
        <mxCell id="mlQqwofmlEr076EAXyUb-0" value="Main" style="swimlane;fontStyle=1;align=center;verticalAlign=top;childLayout=stackLayout;horizontal=1;startSize=26;horizontalStack=0;resizeParent=1;resizeParentMax=0;resizeLast=0;collapsible=1;marginBottom=0;whiteSpace=wrap;html=1;labelBackgroundColor=none;fillColor=#5D7F99;strokeColor=light-dark(#736CA8,#009999);fontColor=light-dark(#000000,#000000);strokeWidth=7;" parent="WIyWlLk6GJQsqaUBKTNV-1" vertex="1">
          <mxGeometry x="950" y="-1870" width="160" height="60" as="geometry" />
        </mxCell>
        <mxCell id="mlQqwofmlEr076EAXyUb-2" value="" style="line;strokeWidth=7;fillColor=none;align=left;verticalAlign=middle;spacingTop=-1;spacingLeft=3;spacingRight=3;rotatable=0;labelPosition=right;points=[];portConstraint=eastwest;strokeColor=light-dark(#736CA8,#009999);labelBackgroundColor=none;fontColor=light-dark(#000000,#000000);" parent="mlQqwofmlEr076EAXyUb-0" vertex="1">
          <mxGeometry y="26" width="160" height="8" as="geometry" />
        </mxCell>
        <mxCell id="mlQqwofmlEr076EAXyUb-3" value="+ main(String[]): void" style="text;strokeColor=light-dark(#736CA8,#009999);fillColor=none;align=left;verticalAlign=top;spacingLeft=4;spacingRight=4;overflow=hidden;rotatable=0;points=[[0,0.5],[1,0.5]];portConstraint=eastwest;whiteSpace=wrap;html=1;labelBackgroundColor=none;fontColor=light-dark(#000000,#000000);strokeWidth=7;" parent="mlQqwofmlEr076EAXyUb-0" vertex="1">
          <mxGeometry y="34" width="160" height="26" as="geometry" />
        </mxCell>
        <mxCell id="mlQqwofmlEr076EAXyUb-15" style="edgeStyle=orthogonalEdgeStyle;rounded=0;orthogonalLoop=1;jettySize=auto;html=1;entryX=0.5;entryY=0;entryDx=0;entryDy=0;labelBackgroundColor=none;strokeColor=light-dark(#736CA8,#009999);fontColor=light-dark(#000000,#000000);strokeWidth=7;" parent="WIyWlLk6GJQsqaUBKTNV-1" source="mlQqwofmlEr076EAXyUb-4" target="mlQqwofmlEr076EAXyUb-11" edge="1">
          <mxGeometry relative="1" as="geometry" />
        </mxCell>
        <mxCell id="mlQqwofmlEr076EAXyUb-39" style="edgeStyle=orthogonalEdgeStyle;rounded=0;orthogonalLoop=1;jettySize=auto;html=1;entryX=0.5;entryY=0;entryDx=0;entryDy=0;labelBackgroundColor=none;strokeColor=light-dark(#736CA8,#009999);fontColor=light-dark(#000000,#000000);strokeWidth=7;" parent="WIyWlLk6GJQsqaUBKTNV-1" source="mlQqwofmlEr076EAXyUb-4" target="mlQqwofmlEr076EAXyUb-26" edge="1">
          <mxGeometry relative="1" as="geometry" />
        </mxCell>
        <mxCell id="D1pd8BK4FWZq5NvtcFFm-2" style="edgeStyle=orthogonalEdgeStyle;rounded=0;orthogonalLoop=1;jettySize=auto;html=1;entryX=0.5;entryY=0;entryDx=0;entryDy=0;labelBackgroundColor=none;strokeColor=light-dark(#736CA8,#009999);fontColor=light-dark(#000000,#000000);strokeWidth=7;" edge="1" parent="WIyWlLk6GJQsqaUBKTNV-1" source="mlQqwofmlEr076EAXyUb-4" target="mlQqwofmlEr076EAXyUb-42">
          <mxGeometry relative="1" as="geometry" />
        </mxCell>
        <mxCell id="mlQqwofmlEr076EAXyUb-4" value="Biblioteca" style="swimlane;fontStyle=1;align=center;verticalAlign=top;childLayout=stackLayout;horizontal=1;startSize=26;horizontalStack=0;resizeParent=1;resizeParentMax=0;resizeLast=0;collapsible=1;marginBottom=0;whiteSpace=wrap;html=1;labelBackgroundColor=none;fillColor=#5D7F99;strokeColor=light-dark(#736CA8,#009999);fontColor=light-dark(#000000,#000000);strokeWidth=7;" parent="WIyWlLk6GJQsqaUBKTNV-1" vertex="1">
          <mxGeometry x="895" y="-1670" width="270" height="180" as="geometry" />
        </mxCell>
        <mxCell id="mlQqwofmlEr076EAXyUb-5" value="&lt;div&gt;- posters: Posters&lt;div&gt;- scanner: Scanner&lt;/div&gt;&lt;/div&gt;&lt;div&gt;- serialitation: Serialitation&lt;/div&gt;- Add: add&lt;div&gt;- Search: search&lt;/div&gt;&lt;div&gt;- Reports: reports&lt;/div&gt;" style="text;strokeColor=light-dark(#736CA8,#009999);fillColor=none;align=left;verticalAlign=top;spacingLeft=4;spacingRight=4;overflow=hidden;rotatable=0;points=[[0,0.5],[1,0.5]];portConstraint=eastwest;whiteSpace=wrap;html=1;labelBackgroundColor=none;fontColor=light-dark(#000000,#000000);strokeWidth=7;" parent="mlQqwofmlEr076EAXyUb-4" vertex="1">
          <mxGeometry y="26" width="270" height="94" as="geometry" />
        </mxCell>
        <mxCell id="mlQqwofmlEr076EAXyUb-6" value="" style="line;strokeWidth=7;fillColor=none;align=left;verticalAlign=middle;spacingTop=-1;spacingLeft=3;spacingRight=3;rotatable=0;labelPosition=right;points=[];portConstraint=eastwest;strokeColor=light-dark(#736CA8,#009999);labelBackgroundColor=none;fontColor=light-dark(#000000,#000000);" parent="mlQqwofmlEr076EAXyUb-4" vertex="1">
          <mxGeometry y="120" width="270" height="8" as="geometry" />
        </mxCell>
        <mxCell id="mlQqwofmlEr076EAXyUb-7" value="+ Biblioteca(posters,scanner): Posters,Scanner&lt;div&gt;+ SelectLibraryOptions():void&lt;/div&gt;&lt;div&gt;&lt;br&gt;&lt;/div&gt;" style="text;strokeColor=light-dark(#736CA8,#009999);fillColor=none;align=left;verticalAlign=top;spacingLeft=4;spacingRight=4;overflow=hidden;rotatable=0;points=[[0,0.5],[1,0.5]];portConstraint=eastwest;whiteSpace=wrap;html=1;labelBackgroundColor=none;fontColor=light-dark(#000000,#000000);strokeWidth=7;" parent="mlQqwofmlEr076EAXyUb-4" vertex="1">
          <mxGeometry y="128" width="270" height="52" as="geometry" />
        </mxCell>
        <mxCell id="mlQqwofmlEr076EAXyUb-24" style="edgeStyle=orthogonalEdgeStyle;rounded=0;orthogonalLoop=1;jettySize=auto;html=1;entryX=0.5;entryY=0;entryDx=0;entryDy=0;labelBackgroundColor=none;strokeColor=light-dark(#736CA8,#009999);fontColor=light-dark(#000000,#000000);strokeWidth=7;" parent="WIyWlLk6GJQsqaUBKTNV-1" source="mlQqwofmlEr076EAXyUb-11" target="mlQqwofmlEr076EAXyUb-16" edge="1">
          <mxGeometry relative="1" as="geometry" />
        </mxCell>
        <mxCell id="mlQqwofmlEr076EAXyUb-25" style="edgeStyle=orthogonalEdgeStyle;rounded=0;orthogonalLoop=1;jettySize=auto;html=1;entryX=0.5;entryY=0;entryDx=0;entryDy=0;labelBackgroundColor=none;strokeColor=light-dark(#736CA8,#009999);fontColor=light-dark(#000000,#000000);strokeWidth=7;" parent="WIyWlLk6GJQsqaUBKTNV-1" source="mlQqwofmlEr076EAXyUb-11" target="mlQqwofmlEr076EAXyUb-20" edge="1">
          <mxGeometry relative="1" as="geometry" />
        </mxCell>
        <mxCell id="mlQqwofmlEr076EAXyUb-11" value="Search" style="swimlane;fontStyle=1;align=center;verticalAlign=top;childLayout=stackLayout;horizontal=1;startSize=26;horizontalStack=0;resizeParent=1;resizeParentMax=0;resizeLast=0;collapsible=1;marginBottom=0;whiteSpace=wrap;html=1;labelBackgroundColor=none;fillColor=#5D7F99;strokeColor=light-dark(#736CA8,#009999);fontColor=light-dark(#000000,#000000);strokeWidth=7;" parent="WIyWlLk6GJQsqaUBKTNV-1" vertex="1">
          <mxGeometry x="-490" y="-1460" width="400" height="160" as="geometry" />
        </mxCell>
        <mxCell id="mlQqwofmlEr076EAXyUb-12" value="&lt;div&gt;- posters: Posters&lt;div&gt;- scanner: Scanner&lt;/div&gt;&lt;/div&gt;&lt;div&gt;- serialitation: Serialitation&lt;/div&gt;- SearchByTitle: searchByTitle&lt;div&gt;- SearchByUUID: searchByUUID&lt;/div&gt;" style="text;strokeColor=light-dark(#736CA8,#009999);fillColor=none;align=left;verticalAlign=top;spacingLeft=4;spacingRight=4;overflow=hidden;rotatable=0;points=[[0,0.5],[1,0.5]];portConstraint=eastwest;whiteSpace=wrap;html=1;labelBackgroundColor=none;fontColor=light-dark(#000000,#000000);strokeWidth=7;" parent="mlQqwofmlEr076EAXyUb-11" vertex="1">
          <mxGeometry y="26" width="400" height="74" as="geometry" />
        </mxCell>
        <mxCell id="mlQqwofmlEr076EAXyUb-13" value="" style="line;strokeWidth=7;fillColor=none;align=left;verticalAlign=middle;spacingTop=-1;spacingLeft=3;spacingRight=3;rotatable=0;labelPosition=right;points=[];portConstraint=eastwest;strokeColor=light-dark(#736CA8,#009999);labelBackgroundColor=none;fontColor=light-dark(#000000,#000000);" parent="mlQqwofmlEr076EAXyUb-11" vertex="1">
          <mxGeometry y="100" width="400" height="8" as="geometry" />
        </mxCell>
        <mxCell id="mlQqwofmlEr076EAXyUb-14" value="+&amp;nbsp;&lt;span style=&quot;font-weight: 700; text-align: center;&quot;&gt;Search&lt;/span&gt;(posters,scanner,serialitation): Posters,Scanner,Serialitation&lt;div&gt;+ searchBook():void&lt;/div&gt;&lt;div&gt;&lt;br&gt;&lt;/div&gt;" style="text;strokeColor=light-dark(#736CA8,#009999);fillColor=none;align=left;verticalAlign=top;spacingLeft=4;spacingRight=4;overflow=hidden;rotatable=0;points=[[0,0.5],[1,0.5]];portConstraint=eastwest;whiteSpace=wrap;html=1;labelBackgroundColor=none;fontColor=light-dark(#000000,#000000);strokeWidth=7;" parent="mlQqwofmlEr076EAXyUb-11" vertex="1">
          <mxGeometry y="108" width="400" height="52" as="geometry" />
        </mxCell>
        <mxCell id="D1pd8BK4FWZq5NvtcFFm-26" style="edgeStyle=orthogonalEdgeStyle;rounded=0;orthogonalLoop=1;jettySize=auto;html=1;entryX=0;entryY=0.5;entryDx=0;entryDy=0;labelBackgroundColor=none;strokeColor=light-dark(#736CA8,#009999);fontColor=light-dark(#000000,#000000);strokeWidth=7;" edge="1" parent="WIyWlLk6GJQsqaUBKTNV-1" source="mlQqwofmlEr076EAXyUb-16" target="D1pd8BK4FWZq5NvtcFFm-18">
          <mxGeometry relative="1" as="geometry">
            <Array as="points">
              <mxPoint x="-290" y="-970" />
              <mxPoint x="-290" y="-310" />
              <mxPoint x="430" y="-310" />
              <mxPoint x="430" y="664" />
            </Array>
          </mxGeometry>
        </mxCell>
        <mxCell id="D1pd8BK4FWZq5NvtcFFm-32" style="edgeStyle=orthogonalEdgeStyle;rounded=0;orthogonalLoop=1;jettySize=auto;html=1;entryX=0.25;entryY=0;entryDx=0;entryDy=0;labelBackgroundColor=none;strokeColor=light-dark(#736CA8,#009999);fontColor=light-dark(#000000,#000000);strokeWidth=7;" edge="1" parent="WIyWlLk6GJQsqaUBKTNV-1" source="mlQqwofmlEr076EAXyUb-16" target="D1pd8BK4FWZq5NvtcFFm-11">
          <mxGeometry relative="1" as="geometry">
            <Array as="points">
              <mxPoint x="-480" y="470" />
              <mxPoint x="-85" y="470" />
            </Array>
          </mxGeometry>
        </mxCell>
        <mxCell id="mlQqwofmlEr076EAXyUb-16" value="&lt;span style=&quot;font-weight: 400;&quot;&gt;SearchByUUID&lt;/span&gt;" style="swimlane;fontStyle=1;align=center;verticalAlign=top;childLayout=stackLayout;horizontal=1;startSize=26;horizontalStack=0;resizeParent=1;resizeParentMax=0;resizeLast=0;collapsible=1;marginBottom=0;whiteSpace=wrap;html=1;labelBackgroundColor=none;fillColor=#5D7F99;strokeColor=light-dark(#736CA8,#009999);fontColor=light-dark(#000000,#000000);strokeWidth=7;" parent="WIyWlLk6GJQsqaUBKTNV-1" vertex="1">
          <mxGeometry x="-900" y="-1050" width="470" height="160" as="geometry" />
        </mxCell>
        <mxCell id="mlQqwofmlEr076EAXyUb-17" value="- posters: Posters&lt;div&gt;- scanner: Scanner&lt;/div&gt;&lt;div&gt;- serialitation: Serialitation&lt;/div&gt;" style="text;strokeColor=light-dark(#736CA8,#009999);fillColor=none;align=left;verticalAlign=top;spacingLeft=4;spacingRight=4;overflow=hidden;rotatable=0;points=[[0,0.5],[1,0.5]];portConstraint=eastwest;whiteSpace=wrap;html=1;labelBackgroundColor=none;fontColor=light-dark(#000000,#000000);strokeWidth=7;" parent="mlQqwofmlEr076EAXyUb-16" vertex="1">
          <mxGeometry y="26" width="470" height="54" as="geometry" />
        </mxCell>
        <mxCell id="mlQqwofmlEr076EAXyUb-18" value="" style="line;strokeWidth=7;fillColor=none;align=left;verticalAlign=middle;spacingTop=-1;spacingLeft=3;spacingRight=3;rotatable=0;labelPosition=right;points=[];portConstraint=eastwest;strokeColor=light-dark(#736CA8,#009999);labelBackgroundColor=none;fontColor=light-dark(#000000,#000000);" parent="mlQqwofmlEr076EAXyUb-16" vertex="1">
          <mxGeometry y="80" width="470" height="8" as="geometry" />
        </mxCell>
        <mxCell id="mlQqwofmlEr076EAXyUb-19" value="&lt;div style=&quot;text-align: center;&quot;&gt;&lt;span style=&quot;background-color: transparent;&quot;&gt;+ &lt;/span&gt;&lt;span style=&quot;background-color: transparent;&quot;&gt;&lt;b&gt;SearchByUUID&lt;/b&gt;&lt;/span&gt;&lt;span style=&quot;background-color: transparent;&quot;&gt;(posters,scanner,serialitation): Posters,Scanner,Serialitation&lt;/span&gt;&lt;/div&gt;&lt;div&gt;+ searhForUUID(): void&lt;/div&gt;&lt;div&gt;+&amp;nbsp;showBooksByUUID(): void&lt;/div&gt;&lt;div&gt;+&amp;nbsp;opctionsLoans(): void&lt;/div&gt;&lt;div&gt;&lt;br&gt;&lt;/div&gt;" style="text;strokeColor=light-dark(#736CA8,#009999);fillColor=none;align=left;verticalAlign=top;spacingLeft=4;spacingRight=4;overflow=hidden;rotatable=0;points=[[0,0.5],[1,0.5]];portConstraint=eastwest;whiteSpace=wrap;html=1;labelBackgroundColor=none;fontColor=light-dark(#000000,#000000);strokeWidth=7;" parent="mlQqwofmlEr076EAXyUb-16" vertex="1">
          <mxGeometry y="88" width="470" height="72" as="geometry" />
        </mxCell>
        <mxCell id="D1pd8BK4FWZq5NvtcFFm-27" style="edgeStyle=orthogonalEdgeStyle;rounded=0;orthogonalLoop=1;jettySize=auto;html=1;entryX=0;entryY=0.5;entryDx=0;entryDy=0;labelBackgroundColor=none;strokeColor=light-dark(#736CA8,#009999);fontColor=light-dark(#000000,#000000);strokeWidth=7;" edge="1" parent="WIyWlLk6GJQsqaUBKTNV-1" source="mlQqwofmlEr076EAXyUb-20" target="D1pd8BK4FWZq5NvtcFFm-16">
          <mxGeometry relative="1" as="geometry">
            <Array as="points">
              <mxPoint x="45" y="-680" />
              <mxPoint x="330" y="-680" />
              <mxPoint x="330" y="-670" />
              <mxPoint x="520" y="-670" />
              <mxPoint x="520" y="588" />
            </Array>
          </mxGeometry>
        </mxCell>
        <mxCell id="mlQqwofmlEr076EAXyUb-20" value="&lt;span style=&quot;font-weight: 400;&quot;&gt;SearchByTitle&lt;/span&gt;" style="swimlane;fontStyle=1;align=center;verticalAlign=top;childLayout=stackLayout;horizontal=1;startSize=26;horizontalStack=0;resizeParent=1;resizeParentMax=0;resizeLast=0;collapsible=1;marginBottom=0;whiteSpace=wrap;html=1;labelBackgroundColor=none;fillColor=#5D7F99;strokeColor=light-dark(#736CA8,#009999);fontColor=light-dark(#000000,#000000);strokeWidth=7;" parent="WIyWlLk6GJQsqaUBKTNV-1" vertex="1">
          <mxGeometry x="-190" y="-1050" width="470" height="160" as="geometry" />
        </mxCell>
        <mxCell id="mlQqwofmlEr076EAXyUb-21" value="- posters: Posters&lt;div&gt;- scanner: Scanner&lt;/div&gt;&lt;div&gt;- serialitation: Serialitation&lt;/div&gt;" style="text;strokeColor=light-dark(#736CA8,#009999);fillColor=none;align=left;verticalAlign=top;spacingLeft=4;spacingRight=4;overflow=hidden;rotatable=0;points=[[0,0.5],[1,0.5]];portConstraint=eastwest;whiteSpace=wrap;html=1;labelBackgroundColor=none;fontColor=light-dark(#000000,#000000);strokeWidth=7;" parent="mlQqwofmlEr076EAXyUb-20" vertex="1">
          <mxGeometry y="26" width="470" height="54" as="geometry" />
        </mxCell>
        <mxCell id="mlQqwofmlEr076EAXyUb-22" value="" style="line;strokeWidth=7;fillColor=none;align=left;verticalAlign=middle;spacingTop=-1;spacingLeft=3;spacingRight=3;rotatable=0;labelPosition=right;points=[];portConstraint=eastwest;strokeColor=light-dark(#736CA8,#009999);labelBackgroundColor=none;fontColor=light-dark(#000000,#000000);" parent="mlQqwofmlEr076EAXyUb-20" vertex="1">
          <mxGeometry y="80" width="470" height="8" as="geometry" />
        </mxCell>
        <mxCell id="mlQqwofmlEr076EAXyUb-23" value="&lt;div style=&quot;text-align: center;&quot;&gt;&lt;span style=&quot;background-color: transparent;&quot;&gt;+&amp;nbsp;&lt;/span&gt;&lt;span style=&quot;background-color: transparent;&quot;&gt;&lt;b&gt;SearchByTitle&lt;/b&gt;&lt;font&gt;(posters,scanner,serialitation): Posters,Scanner,Serialitation&lt;/font&gt;&lt;/span&gt;&lt;/div&gt;&lt;div&gt;+ searchForTitle(): void&lt;/div&gt;&lt;div&gt;+&amp;nbsp;getBookListByTitle(): void&lt;/div&gt;&lt;div&gt;&lt;br&gt;&lt;/div&gt;" style="text;strokeColor=light-dark(#736CA8,#009999);fillColor=none;align=left;verticalAlign=top;spacingLeft=4;spacingRight=4;overflow=hidden;rotatable=0;points=[[0,0.5],[1,0.5]];portConstraint=eastwest;whiteSpace=wrap;html=1;labelBackgroundColor=none;fontColor=light-dark(#000000,#000000);strokeWidth=7;" parent="mlQqwofmlEr076EAXyUb-20" vertex="1">
          <mxGeometry y="88" width="470" height="72" as="geometry" />
        </mxCell>
        <mxCell id="mlQqwofmlEr076EAXyUb-40" style="edgeStyle=orthogonalEdgeStyle;rounded=0;orthogonalLoop=1;jettySize=auto;html=1;entryX=0.5;entryY=0;entryDx=0;entryDy=0;labelBackgroundColor=none;strokeColor=light-dark(#736CA8,#009999);fontColor=light-dark(#000000,#000000);strokeWidth=7;" parent="WIyWlLk6GJQsqaUBKTNV-1" source="mlQqwofmlEr076EAXyUb-26" target="mlQqwofmlEr076EAXyUb-30" edge="1">
          <mxGeometry relative="1" as="geometry" />
        </mxCell>
        <mxCell id="mlQqwofmlEr076EAXyUb-41" style="edgeStyle=orthogonalEdgeStyle;rounded=0;orthogonalLoop=1;jettySize=auto;html=1;entryX=0.5;entryY=0;entryDx=0;entryDy=0;labelBackgroundColor=none;strokeColor=light-dark(#736CA8,#009999);fontColor=light-dark(#000000,#000000);strokeWidth=7;" parent="WIyWlLk6GJQsqaUBKTNV-1" source="mlQqwofmlEr076EAXyUb-26" target="mlQqwofmlEr076EAXyUb-34" edge="1">
          <mxGeometry relative="1" as="geometry" />
        </mxCell>
        <mxCell id="mlQqwofmlEr076EAXyUb-26" value="Add" style="swimlane;fontStyle=1;align=center;verticalAlign=top;childLayout=stackLayout;horizontal=1;startSize=26;horizontalStack=0;resizeParent=1;resizeParentMax=0;resizeLast=0;collapsible=1;marginBottom=0;whiteSpace=wrap;html=1;labelBackgroundColor=none;fillColor=#5D7F99;strokeColor=light-dark(#736CA8,#009999);fontColor=light-dark(#000000,#000000);strokeWidth=7;" parent="WIyWlLk6GJQsqaUBKTNV-1" vertex="1">
          <mxGeometry x="830" y="-1440" width="400" height="170" as="geometry" />
        </mxCell>
        <mxCell id="mlQqwofmlEr076EAXyUb-27" value="&lt;div&gt;- posters: Posters&lt;div&gt;- scanner: Scanner&lt;/div&gt;&lt;/div&gt;&lt;div&gt;- serialitation: Serialitation&lt;/div&gt;- Addmanually: addmanually&lt;div&gt;- AddAutomatic: addAutomatic&lt;/div&gt;" style="text;strokeColor=light-dark(#736CA8,#009999);fillColor=none;align=left;verticalAlign=top;spacingLeft=4;spacingRight=4;overflow=hidden;rotatable=0;points=[[0,0.5],[1,0.5]];portConstraint=eastwest;whiteSpace=wrap;html=1;labelBackgroundColor=none;fontColor=light-dark(#000000,#000000);strokeWidth=7;" parent="mlQqwofmlEr076EAXyUb-26" vertex="1">
          <mxGeometry y="26" width="400" height="84" as="geometry" />
        </mxCell>
        <mxCell id="mlQqwofmlEr076EAXyUb-28" value="" style="line;strokeWidth=7;fillColor=none;align=left;verticalAlign=middle;spacingTop=-1;spacingLeft=3;spacingRight=3;rotatable=0;labelPosition=right;points=[];portConstraint=eastwest;strokeColor=light-dark(#736CA8,#009999);labelBackgroundColor=none;fontColor=light-dark(#000000,#000000);" parent="mlQqwofmlEr076EAXyUb-26" vertex="1">
          <mxGeometry y="110" width="400" height="8" as="geometry" />
        </mxCell>
        <mxCell id="mlQqwofmlEr076EAXyUb-29" value="&lt;div style=&quot;text-align: center;&quot;&gt;&lt;span style=&quot;background-color: transparent;&quot;&gt;+ &lt;/span&gt;&lt;span style=&quot;background-color: transparent;&quot;&gt;&lt;b&gt;Add&lt;/b&gt;&lt;/span&gt;&lt;span style=&quot;background-color: transparent;&quot;&gt;(posters,scanner,serialitation): Posters,Scanner,Serialitation&lt;/span&gt;&lt;/div&gt;&lt;div&gt;+ addBook():void&lt;/div&gt;&lt;div&gt;&lt;br&gt;&lt;/div&gt;" style="text;strokeColor=light-dark(#736CA8,#009999);fillColor=none;align=left;verticalAlign=top;spacingLeft=4;spacingRight=4;overflow=hidden;rotatable=0;points=[[0,0.5],[1,0.5]];portConstraint=eastwest;whiteSpace=wrap;html=1;labelBackgroundColor=none;fontColor=light-dark(#000000,#000000);strokeWidth=7;" parent="mlQqwofmlEr076EAXyUb-26" vertex="1">
          <mxGeometry y="118" width="400" height="52" as="geometry" />
        </mxCell>
        <mxCell id="D1pd8BK4FWZq5NvtcFFm-28" style="edgeStyle=orthogonalEdgeStyle;rounded=0;orthogonalLoop=1;jettySize=auto;html=1;entryX=0.25;entryY=0;entryDx=0;entryDy=0;labelBackgroundColor=none;strokeColor=light-dark(#736CA8,#009999);fontColor=light-dark(#000000,#000000);strokeWidth=7;" edge="1" parent="WIyWlLk6GJQsqaUBKTNV-1" source="mlQqwofmlEr076EAXyUb-30" target="D1pd8BK4FWZq5NvtcFFm-15">
          <mxGeometry relative="1" as="geometry">
            <Array as="points">
              <mxPoint x="600" y="330" />
              <mxPoint x="955" y="330" />
            </Array>
          </mxGeometry>
        </mxCell>
        <mxCell id="mlQqwofmlEr076EAXyUb-30" value="&lt;span style=&quot;font-weight: 400;&quot;&gt;Addmanually&lt;/span&gt;" style="swimlane;fontStyle=1;align=center;verticalAlign=top;childLayout=stackLayout;horizontal=1;startSize=26;horizontalStack=0;resizeParent=1;resizeParentMax=0;resizeLast=0;collapsible=1;marginBottom=0;whiteSpace=wrap;html=1;labelBackgroundColor=none;fillColor=#5D7F99;strokeColor=light-dark(#736CA8,#009999);fontColor=light-dark(#000000,#000000);strokeWidth=7;" parent="WIyWlLk6GJQsqaUBKTNV-1" vertex="1">
          <mxGeometry x="425" y="-1050" width="470" height="200" as="geometry" />
        </mxCell>
        <mxCell id="mlQqwofmlEr076EAXyUb-31" value="- posters: Posters&lt;div&gt;- scanner: Scanner&lt;/div&gt;&lt;div&gt;- serialitation: Serialitation&lt;/div&gt;" style="text;strokeColor=light-dark(#736CA8,#009999);fillColor=none;align=left;verticalAlign=top;spacingLeft=4;spacingRight=4;overflow=hidden;rotatable=0;points=[[0,0.5],[1,0.5]];portConstraint=eastwest;whiteSpace=wrap;html=1;labelBackgroundColor=none;fontColor=light-dark(#000000,#000000);strokeWidth=7;" parent="mlQqwofmlEr076EAXyUb-30" vertex="1">
          <mxGeometry y="26" width="470" height="54" as="geometry" />
        </mxCell>
        <mxCell id="mlQqwofmlEr076EAXyUb-32" value="" style="line;strokeWidth=7;fillColor=none;align=left;verticalAlign=middle;spacingTop=-1;spacingLeft=3;spacingRight=3;rotatable=0;labelPosition=right;points=[];portConstraint=eastwest;strokeColor=light-dark(#736CA8,#009999);labelBackgroundColor=none;fontColor=light-dark(#000000,#000000);" parent="mlQqwofmlEr076EAXyUb-30" vertex="1">
          <mxGeometry y="80" width="470" height="8" as="geometry" />
        </mxCell>
        <mxCell id="mlQqwofmlEr076EAXyUb-33" value="&lt;div style=&quot;text-align: center;&quot;&gt;&lt;span style=&quot;background-color: transparent;&quot;&gt;+&amp;nbsp;&lt;/span&gt;&lt;span style=&quot;background-color: transparent;&quot;&gt;&lt;font&gt;&lt;b&gt;Addmanually&lt;/b&gt;&lt;font&gt;(posters,scanner,serialitation): Posters,Scanner,Serialitation&lt;/font&gt;&lt;/font&gt;&lt;/span&gt;&lt;/div&gt;&lt;div&gt;+ addManual(): void&lt;/div&gt;&lt;div&gt;+&amp;nbsp;validateData(): void&lt;/div&gt;&lt;div&gt;&lt;span style=&quot;background-color: transparent;&quot;&gt;&lt;font&gt;+ &lt;/font&gt;addBookListBooks&lt;font&gt;(): void&lt;/font&gt;&lt;/span&gt;&lt;/div&gt;&lt;div&gt;&lt;div&gt;+ addTitle(): void&lt;/div&gt;&lt;div&gt;+&amp;nbsp;addAutor(): void&lt;/div&gt;&lt;div&gt;&lt;span style=&quot;background-color: transparent;&quot;&gt;&lt;font&gt;+&amp;nbsp;&lt;/font&gt;addYear&lt;font&gt;(): void&lt;/font&gt;&lt;/span&gt;&lt;/div&gt;&lt;/div&gt;" style="text;strokeColor=light-dark(#736CA8,#009999);fillColor=none;align=left;verticalAlign=top;spacingLeft=4;spacingRight=4;overflow=hidden;rotatable=0;points=[[0,0.5],[1,0.5]];portConstraint=eastwest;whiteSpace=wrap;html=1;labelBackgroundColor=none;fontColor=light-dark(#000000,#000000);strokeWidth=7;" parent="mlQqwofmlEr076EAXyUb-30" vertex="1">
          <mxGeometry y="88" width="470" height="112" as="geometry" />
        </mxCell>
        <mxCell id="mlQqwofmlEr076EAXyUb-34" value="&lt;span style=&quot;font-weight: 400;&quot;&gt;AddAutomatic&lt;/span&gt;" style="swimlane;fontStyle=1;align=center;verticalAlign=top;childLayout=stackLayout;horizontal=1;startSize=26;horizontalStack=0;resizeParent=1;resizeParentMax=0;resizeLast=0;collapsible=1;marginBottom=0;whiteSpace=wrap;html=1;labelBackgroundColor=none;fillColor=#5D7F99;strokeColor=light-dark(#736CA8,#009999);fontColor=light-dark(#000000,#000000);strokeWidth=7;" parent="WIyWlLk6GJQsqaUBKTNV-1" vertex="1">
          <mxGeometry x="1165" y="-1060" width="470" height="250" as="geometry" />
        </mxCell>
        <mxCell id="mlQqwofmlEr076EAXyUb-35" value="- posters: Posters&lt;div&gt;- scanner: Scanner&lt;/div&gt;&lt;div&gt;- serialitation: Serialitation&lt;/div&gt;&lt;div&gt;- errors:&amp;nbsp;List&amp;lt;String&amp;gt;&lt;/div&gt;&lt;div&gt;-&amp;nbsp;bookAdds:&amp;nbsp;List&amp;lt;String&amp;gt;&lt;/div&gt;&lt;div&gt;- operationsLoans: Loans&amp;nbsp;&lt;/div&gt;" style="text;strokeColor=light-dark(#736CA8,#009999);fillColor=none;align=left;verticalAlign=top;spacingLeft=4;spacingRight=4;overflow=hidden;rotatable=0;points=[[0,0.5],[1,0.5]];portConstraint=eastwest;whiteSpace=wrap;html=1;labelBackgroundColor=none;fontColor=light-dark(#000000,#000000);strokeWidth=7;" parent="mlQqwofmlEr076EAXyUb-34" vertex="1">
          <mxGeometry y="26" width="470" height="104" as="geometry" />
        </mxCell>
        <mxCell id="mlQqwofmlEr076EAXyUb-36" value="" style="line;strokeWidth=7;fillColor=none;align=left;verticalAlign=middle;spacingTop=-1;spacingLeft=3;spacingRight=3;rotatable=0;labelPosition=right;points=[];portConstraint=eastwest;strokeColor=light-dark(#736CA8,#009999);labelBackgroundColor=none;fontColor=light-dark(#000000,#000000);" parent="mlQqwofmlEr076EAXyUb-34" vertex="1">
          <mxGeometry y="130" width="470" height="8" as="geometry" />
        </mxCell>
        <mxCell id="mlQqwofmlEr076EAXyUb-37" value="&lt;div style=&quot;text-align: center;&quot;&gt;&lt;span style=&quot;background-color: transparent;&quot;&gt;+&amp;nbsp;&lt;/span&gt;&lt;span style=&quot;background-color: transparent;&quot;&gt;&lt;font&gt;&lt;font&gt;&lt;b&gt;AddAutomatic&lt;/b&gt;&lt;font&gt;(posters,scanner,serialitation): Posters,Scanner,Serialitation&lt;/font&gt;&lt;/font&gt;&lt;/font&gt;&lt;/span&gt;&lt;/div&gt;&lt;div&gt;+ startProces(): void&lt;/div&gt;&lt;div&gt;+&amp;nbsp;printByCSV(): void&lt;/div&gt;&lt;div&gt;&lt;span style=&quot;background-color: transparent;&quot;&gt;&lt;font&gt;+&amp;nbsp;&lt;/font&gt;&lt;font&gt;procesLine&lt;font&gt;(): void&lt;/font&gt;&lt;/font&gt;&lt;/span&gt;&lt;/div&gt;&lt;div&gt;&lt;div&gt;+ validateLoan(): void&lt;/div&gt;&lt;div&gt;+&amp;nbsp;ValidateData(): void&lt;/div&gt;&lt;div&gt;&lt;span style=&quot;background-color: transparent;&quot;&gt;&lt;font&gt;+&amp;nbsp;&lt;/font&gt;&lt;font&gt;showResults&lt;font&gt;(): void&lt;/font&gt;&lt;/font&gt;&lt;/span&gt;&lt;/div&gt;&lt;/div&gt;" style="text;strokeColor=light-dark(#736CA8,#009999);fillColor=none;align=left;verticalAlign=top;spacingLeft=4;spacingRight=4;overflow=hidden;rotatable=0;points=[[0,0.5],[1,0.5]];portConstraint=eastwest;whiteSpace=wrap;html=1;labelBackgroundColor=none;fontColor=light-dark(#000000,#000000);strokeWidth=7;" parent="mlQqwofmlEr076EAXyUb-34" vertex="1">
          <mxGeometry y="138" width="470" height="112" as="geometry" />
        </mxCell>
        <mxCell id="D1pd8BK4FWZq5NvtcFFm-0" style="edgeStyle=orthogonalEdgeStyle;rounded=0;orthogonalLoop=1;jettySize=auto;html=1;entryX=0.5;entryY=0;entryDx=0;entryDy=0;labelBackgroundColor=none;strokeColor=light-dark(#736CA8,#009999);fontColor=light-dark(#000000,#000000);strokeWidth=7;" edge="1" parent="WIyWlLk6GJQsqaUBKTNV-1" source="mlQqwofmlEr076EAXyUb-42" target="mlQqwofmlEr076EAXyUb-50">
          <mxGeometry relative="1" as="geometry" />
        </mxCell>
        <mxCell id="D1pd8BK4FWZq5NvtcFFm-1" style="edgeStyle=orthogonalEdgeStyle;rounded=0;orthogonalLoop=1;jettySize=auto;html=1;entryX=0.5;entryY=0;entryDx=0;entryDy=0;labelBackgroundColor=none;strokeColor=light-dark(#736CA8,#009999);fontColor=light-dark(#000000,#000000);strokeWidth=7;" edge="1" parent="WIyWlLk6GJQsqaUBKTNV-1" source="mlQqwofmlEr076EAXyUb-42" target="mlQqwofmlEr076EAXyUb-46">
          <mxGeometry relative="1" as="geometry" />
        </mxCell>
        <mxCell id="mlQqwofmlEr076EAXyUb-42" value="Reports" style="swimlane;fontStyle=1;align=center;verticalAlign=top;childLayout=stackLayout;horizontal=1;startSize=26;horizontalStack=0;resizeParent=1;resizeParentMax=0;resizeLast=0;collapsible=1;marginBottom=0;whiteSpace=wrap;html=1;labelBackgroundColor=none;fillColor=#5D7F99;strokeColor=light-dark(#736CA8,#009999);fontColor=light-dark(#000000,#000000);strokeWidth=7;" parent="WIyWlLk6GJQsqaUBKTNV-1" vertex="1">
          <mxGeometry x="2170" y="-1480" width="400" height="170" as="geometry" />
        </mxCell>
        <mxCell id="mlQqwofmlEr076EAXyUb-43" value="&lt;div&gt;- posters: Posters&lt;div&gt;- scanner: Scanner&lt;/div&gt;&lt;/div&gt;&lt;div&gt;- serialitation: Serialitation&lt;/div&gt;- ReportsBooks: reportsBooks&lt;div&gt;- ReportsLoans: reportsLoans&lt;/div&gt;" style="text;strokeColor=light-dark(#736CA8,#009999);fillColor=none;align=left;verticalAlign=top;spacingLeft=4;spacingRight=4;overflow=hidden;rotatable=0;points=[[0,0.5],[1,0.5]];portConstraint=eastwest;whiteSpace=wrap;html=1;labelBackgroundColor=none;fontColor=light-dark(#000000,#000000);strokeWidth=7;" parent="mlQqwofmlEr076EAXyUb-42" vertex="1">
          <mxGeometry y="26" width="400" height="84" as="geometry" />
        </mxCell>
        <mxCell id="mlQqwofmlEr076EAXyUb-44" value="" style="line;strokeWidth=7;fillColor=none;align=left;verticalAlign=middle;spacingTop=-1;spacingLeft=3;spacingRight=3;rotatable=0;labelPosition=right;points=[];portConstraint=eastwest;strokeColor=light-dark(#736CA8,#009999);labelBackgroundColor=none;fontColor=light-dark(#000000,#000000);" parent="mlQqwofmlEr076EAXyUb-42" vertex="1">
          <mxGeometry y="110" width="400" height="8" as="geometry" />
        </mxCell>
        <mxCell id="mlQqwofmlEr076EAXyUb-45" value="&lt;div style=&quot;text-align: center;&quot;&gt;&lt;span style=&quot;background-color: transparent;&quot;&gt;+&amp;nbsp;&lt;/span&gt;&lt;span style=&quot;background-color: transparent;&quot;&gt;&lt;b&gt;Reports&lt;/b&gt;&lt;font&gt;(posters,scanner,serialitation): Posters,Scanner,Serialitation&lt;/font&gt;&lt;/span&gt;&lt;/div&gt;&lt;div&gt;+ Reports():void&lt;/div&gt;&lt;div&gt;&lt;br&gt;&lt;/div&gt;" style="text;strokeColor=light-dark(#736CA8,#009999);fillColor=none;align=left;verticalAlign=top;spacingLeft=4;spacingRight=4;overflow=hidden;rotatable=0;points=[[0,0.5],[1,0.5]];portConstraint=eastwest;whiteSpace=wrap;html=1;labelBackgroundColor=none;fontColor=light-dark(#000000,#000000);strokeWidth=7;" parent="mlQqwofmlEr076EAXyUb-42" vertex="1">
          <mxGeometry y="118" width="400" height="52" as="geometry" />
        </mxCell>
        <mxCell id="D1pd8BK4FWZq5NvtcFFm-30" style="edgeStyle=orthogonalEdgeStyle;rounded=0;orthogonalLoop=1;jettySize=auto;html=1;entryX=1.011;entryY=0.184;entryDx=0;entryDy=0;entryPerimeter=0;labelBackgroundColor=none;strokeColor=light-dark(#736CA8,#009999);fontColor=light-dark(#000000,#000000);strokeWidth=7;" edge="1" parent="WIyWlLk6GJQsqaUBKTNV-1" source="mlQqwofmlEr076EAXyUb-46" target="D1pd8BK4FWZq5NvtcFFm-18">
          <mxGeometry relative="1" as="geometry" />
        </mxCell>
        <mxCell id="mlQqwofmlEr076EAXyUb-46" value="&lt;span style=&quot;font-weight: 400;&quot;&gt;ReportsBooks&lt;/span&gt;" style="swimlane;fontStyle=1;align=center;verticalAlign=top;childLayout=stackLayout;horizontal=1;startSize=26;horizontalStack=0;resizeParent=1;resizeParentMax=0;resizeLast=0;collapsible=1;marginBottom=0;whiteSpace=wrap;html=1;labelBackgroundColor=none;fillColor=#5D7F99;strokeColor=light-dark(#736CA8,#009999);fontColor=light-dark(#000000,#000000);strokeWidth=7;" parent="WIyWlLk6GJQsqaUBKTNV-1" vertex="1">
          <mxGeometry x="1770" y="-1060" width="470" height="180" as="geometry" />
        </mxCell>
        <mxCell id="mlQqwofmlEr076EAXyUb-47" value="- posters: Posters&lt;div&gt;- scanner: Scanner&lt;/div&gt;&lt;div&gt;- serialitation: Serialitation&lt;/div&gt;&lt;div&gt;&lt;span style=&quot;background-color: transparent;&quot;&gt;&amp;nbsp;&lt;/span&gt;&lt;/div&gt;" style="text;strokeColor=light-dark(#736CA8,#009999);fillColor=none;align=left;verticalAlign=top;spacingLeft=4;spacingRight=4;overflow=hidden;rotatable=0;points=[[0,0.5],[1,0.5]];portConstraint=eastwest;whiteSpace=wrap;html=1;labelBackgroundColor=none;fontColor=light-dark(#000000,#000000);strokeWidth=7;" parent="mlQqwofmlEr076EAXyUb-46" vertex="1">
          <mxGeometry y="26" width="470" height="54" as="geometry" />
        </mxCell>
        <mxCell id="mlQqwofmlEr076EAXyUb-48" value="" style="line;strokeWidth=7;fillColor=none;align=left;verticalAlign=middle;spacingTop=-1;spacingLeft=3;spacingRight=3;rotatable=0;labelPosition=right;points=[];portConstraint=eastwest;strokeColor=light-dark(#736CA8,#009999);labelBackgroundColor=none;fontColor=light-dark(#000000,#000000);" parent="mlQqwofmlEr076EAXyUb-46" vertex="1">
          <mxGeometry y="80" width="470" height="8" as="geometry" />
        </mxCell>
        <mxCell id="mlQqwofmlEr076EAXyUb-49" value="&lt;div style=&quot;text-align: center;&quot;&gt;&lt;span style=&quot;background-color: transparent;&quot;&gt;+&amp;nbsp;&lt;/span&gt;&lt;span style=&quot;background-color: transparent;&quot;&gt;&lt;font&gt;&lt;font&gt;&lt;font&gt;&lt;b&gt;ReportsBooks&lt;/b&gt;&lt;font&gt;(posters,scanner,serialitation): Posters,Scanner,Serialitation&lt;/font&gt;&lt;/font&gt;&lt;/font&gt;&lt;/font&gt;&lt;/span&gt;&lt;/div&gt;&lt;div&gt;+ validateExistListBooks(): boolean&lt;/div&gt;&lt;div&gt;+&amp;nbsp;printList(): void&lt;/div&gt;&lt;div&gt;&lt;span style=&quot;background-color: transparent;&quot;&gt;&lt;font&gt;+&amp;nbsp;&lt;/font&gt;&lt;font&gt;&lt;font&gt;getListofAvailableBooks&lt;font&gt;(): void&lt;/font&gt;&lt;/font&gt;&lt;/font&gt;&lt;/span&gt;&lt;/div&gt;&lt;div&gt;+ getListofBorrowedBooks(): void&lt;br&gt;&lt;/div&gt;" style="text;strokeColor=light-dark(#736CA8,#009999);fillColor=none;align=left;verticalAlign=top;spacingLeft=4;spacingRight=4;overflow=hidden;rotatable=0;points=[[0,0.5],[1,0.5]];portConstraint=eastwest;whiteSpace=wrap;html=1;labelBackgroundColor=none;fontColor=light-dark(#000000,#000000);strokeWidth=7;" parent="mlQqwofmlEr076EAXyUb-46" vertex="1">
          <mxGeometry y="88" width="470" height="92" as="geometry" />
        </mxCell>
        <mxCell id="mlQqwofmlEr076EAXyUb-50" value="&lt;span style=&quot;font-weight: 400;&quot;&gt;ReportsLoans&lt;/span&gt;" style="swimlane;fontStyle=1;align=center;verticalAlign=top;childLayout=stackLayout;horizontal=1;startSize=26;horizontalStack=0;resizeParent=1;resizeParentMax=0;resizeLast=0;collapsible=1;marginBottom=0;whiteSpace=wrap;html=1;labelBackgroundColor=none;fillColor=#5D7F99;strokeColor=light-dark(#736CA8,#009999);fontColor=light-dark(#000000,#000000);strokeWidth=7;" parent="WIyWlLk6GJQsqaUBKTNV-1" vertex="1">
          <mxGeometry x="2450" y="-1060" width="470" height="300" as="geometry" />
        </mxCell>
        <mxCell id="mlQqwofmlEr076EAXyUb-51" value="- posters: Posters&lt;div&gt;- scanner: Scanner&lt;/div&gt;&lt;div&gt;- serialitation: Serialitation&lt;/div&gt;&lt;div&gt;&lt;span style=&quot;background-color: transparent;&quot;&gt;&amp;nbsp;&lt;/span&gt;&lt;/div&gt;" style="text;strokeColor=light-dark(#736CA8,#009999);fillColor=none;align=left;verticalAlign=top;spacingLeft=4;spacingRight=4;overflow=hidden;rotatable=0;points=[[0,0.5],[1,0.5]];portConstraint=eastwest;whiteSpace=wrap;html=1;labelBackgroundColor=none;fontColor=light-dark(#000000,#000000);strokeWidth=7;" parent="mlQqwofmlEr076EAXyUb-50" vertex="1">
          <mxGeometry y="26" width="470" height="54" as="geometry" />
        </mxCell>
        <mxCell id="mlQqwofmlEr076EAXyUb-52" value="" style="line;strokeWidth=7;fillColor=none;align=left;verticalAlign=middle;spacingTop=-1;spacingLeft=3;spacingRight=3;rotatable=0;labelPosition=right;points=[];portConstraint=eastwest;strokeColor=light-dark(#736CA8,#009999);labelBackgroundColor=none;fontColor=light-dark(#000000,#000000);" parent="mlQqwofmlEr076EAXyUb-50" vertex="1">
          <mxGeometry y="80" width="470" height="8" as="geometry" />
        </mxCell>
        <mxCell id="mlQqwofmlEr076EAXyUb-53" value="&lt;div style=&quot;text-align: center;&quot;&gt;&lt;span style=&quot;background-color: transparent;&quot;&gt;+&amp;nbsp;&lt;/span&gt;ReportsLoans&lt;span style=&quot;background-color: transparent;&quot;&gt;&lt;font&gt;&lt;font&gt;&lt;font&gt;&lt;font&gt;(posters,scanner,serialitation): Posters,Scanner,Serialitation&lt;/font&gt;&lt;/font&gt;&lt;/font&gt;&lt;/font&gt;&lt;/span&gt;&lt;/div&gt;&lt;div&gt;+ validateExistListBorrowedBooks(): boolean&lt;/div&gt;&lt;div&gt;+&amp;nbsp;printLoanList(): void&lt;/div&gt;&lt;div&gt;&lt;span style=&quot;background-color: transparent;&quot;&gt;&lt;font&gt;+&amp;nbsp;&lt;/font&gt;&lt;font&gt;&lt;font&gt;&lt;font&gt;searchForName&lt;font&gt;(): void&lt;/font&gt;&lt;/font&gt;&lt;/font&gt;&lt;/font&gt;&lt;/span&gt;&lt;/div&gt;&lt;div&gt;+ printByNamesList(): void&lt;br&gt;&lt;/div&gt;&lt;div&gt;&lt;div&gt;+&amp;nbsp;searchForTitle(): void&lt;/div&gt;&lt;div&gt;&lt;span style=&quot;background-color: transparent;&quot;&gt;&lt;font&gt;+&amp;nbsp;&lt;/font&gt;&lt;font&gt;printByTitlesList&lt;font&gt;(): void&lt;/font&gt;&lt;/font&gt;&lt;/span&gt;&lt;/div&gt;&lt;div&gt;+ searhBook(): void&lt;/div&gt;&lt;/div&gt;&lt;div&gt;&lt;div&gt;+&amp;nbsp;searhForUUID(): void&lt;/div&gt;&lt;div&gt;&lt;span style=&quot;background-color: transparent;&quot;&gt;&lt;font&gt;+&amp;nbsp;&lt;/font&gt;&lt;font&gt;printByUUIDsList&lt;font&gt;(): void&lt;/font&gt;&lt;/font&gt;&lt;/span&gt;&lt;/div&gt;&lt;div&gt;+ processPopularityReport(): void&lt;/div&gt;&lt;/div&gt;&lt;div&gt;&lt;div&gt;+&amp;nbsp;processUnpopularReport(): void&lt;/div&gt;&lt;div&gt;&lt;span style=&quot;background-color: transparent;&quot;&gt;&lt;font&gt;+&amp;nbsp;&lt;/font&gt;&lt;font&gt;imprimirLista&lt;font&gt;(): void&lt;/font&gt;&lt;/font&gt;&lt;/span&gt;&lt;/div&gt;&lt;div&gt;+ getListBorrowd(): void&lt;/div&gt;&lt;/div&gt;" style="text;strokeColor=light-dark(#736CA8,#009999);fillColor=none;align=left;verticalAlign=top;spacingLeft=4;spacingRight=4;overflow=hidden;rotatable=0;points=[[0,0.5],[1,0.5]];portConstraint=eastwest;whiteSpace=wrap;html=1;labelBackgroundColor=none;fontColor=light-dark(#000000,#000000);strokeWidth=7;" parent="mlQqwofmlEr076EAXyUb-50" vertex="1">
          <mxGeometry y="88" width="470" height="212" as="geometry" />
        </mxCell>
        <mxCell id="D1pd8BK4FWZq5NvtcFFm-19" style="edgeStyle=orthogonalEdgeStyle;rounded=0;orthogonalLoop=1;jettySize=auto;html=1;entryX=0.5;entryY=0;entryDx=0;entryDy=0;labelBackgroundColor=none;strokeColor=light-dark(#736CA8,#009999);fontColor=light-dark(#000000,#000000);strokeWidth=7;" edge="1" parent="WIyWlLk6GJQsqaUBKTNV-1" source="D1pd8BK4FWZq5NvtcFFm-3" target="D1pd8BK4FWZq5NvtcFFm-15">
          <mxGeometry relative="1" as="geometry" />
        </mxCell>
        <mxCell id="D1pd8BK4FWZq5NvtcFFm-3" value="Book" style="swimlane;fontStyle=1;align=center;verticalAlign=top;childLayout=stackLayout;horizontal=1;startSize=26;horizontalStack=0;resizeParent=1;resizeParentMax=0;resizeLast=0;collapsible=1;marginBottom=0;whiteSpace=wrap;html=1;labelBackgroundColor=none;fillColor=#5D7F99;strokeColor=light-dark(#736CA8,#009999);fontColor=light-dark(#000000,#000000);strokeWidth=7;" vertex="1" parent="WIyWlLk6GJQsqaUBKTNV-1">
          <mxGeometry x="850" y="-60" width="420" height="310" as="geometry" />
        </mxCell>
        <mxCell id="D1pd8BK4FWZq5NvtcFFm-4" value="&lt;div&gt;- id: UUID&lt;div&gt;- title: String&lt;/div&gt;&lt;/div&gt;&lt;div&gt;- autor: String&lt;/div&gt;- year: int&lt;div&gt;- disponibilityState: boolean&lt;/div&gt;&lt;div&gt;- numberOfTimesBorrowed: int&lt;/div&gt;" style="text;strokeColor=light-dark(#736CA8,#009999);fillColor=none;align=left;verticalAlign=top;spacingLeft=4;spacingRight=4;overflow=hidden;rotatable=0;points=[[0,0.5],[1,0.5]];portConstraint=eastwest;whiteSpace=wrap;html=1;labelBackgroundColor=none;fontColor=light-dark(#000000,#000000);strokeWidth=7;" vertex="1" parent="D1pd8BK4FWZq5NvtcFFm-3">
          <mxGeometry y="26" width="420" height="94" as="geometry" />
        </mxCell>
        <mxCell id="D1pd8BK4FWZq5NvtcFFm-5" value="" style="line;strokeWidth=7;fillColor=none;align=left;verticalAlign=middle;spacingTop=-1;spacingLeft=3;spacingRight=3;rotatable=0;labelPosition=right;points=[];portConstraint=eastwest;strokeColor=light-dark(#736CA8,#009999);labelBackgroundColor=none;fontColor=light-dark(#000000,#000000);" vertex="1" parent="D1pd8BK4FWZq5NvtcFFm-3">
          <mxGeometry y="120" width="420" height="8" as="geometry" />
        </mxCell>
        <mxCell id="D1pd8BK4FWZq5NvtcFFm-6" value="&lt;div&gt;+ Book( String, String,&amp;nbsp; int): void&lt;/div&gt;&lt;div&gt;&lt;span style=&quot;background-color: transparent;&quot;&gt;+&amp;nbsp;&lt;/span&gt;&lt;span style=&quot;background-color: transparent;&quot;&gt;Book(UUID , String , String , int , boolean ):&amp;nbsp;&lt;/span&gt;&lt;span style=&quot;background-color: transparent;&quot;&gt;void&lt;/span&gt;&lt;/div&gt;&lt;div&gt;&lt;span style=&quot;background-color: transparent;&quot;&gt;+&amp;nbsp;&lt;/span&gt;&lt;span style=&quot;background-color: transparent;&quot;&gt;getNumberOfTimesBorrowed():&amp;nbsp;&lt;/span&gt;&lt;span style=&quot;background-color: transparent;&quot;&gt;int&lt;/span&gt;&lt;span style=&quot;background-color: transparent;&quot;&gt;&lt;/span&gt;&lt;/div&gt;&lt;div&gt;&lt;span style=&quot;background-color: transparent;&quot;&gt;+&amp;nbsp;&lt;/span&gt;&lt;span style=&quot;background-color: transparent;&quot;&gt;setNumberOfTimesLoan():&amp;nbsp;&lt;/span&gt;&lt;span style=&quot;background-color: transparent;&quot;&gt;void&lt;/span&gt;&lt;span style=&quot;background-color: transparent;&quot;&gt;&lt;/span&gt;&lt;/div&gt;&lt;div&gt;&lt;span style=&quot;background-color: transparent;&quot;&gt;+&amp;nbsp;&lt;/span&gt;&lt;span style=&quot;background-color: transparent;&quot;&gt;showStateLoan():&amp;nbsp;&lt;/span&gt;&lt;span style=&quot;background-color: transparent;&quot;&gt;String&lt;/span&gt;&lt;span style=&quot;background-color: transparent;&quot;&gt;&lt;/span&gt;&lt;/div&gt;&lt;div&gt;&lt;div&gt;&lt;span style=&quot;background-color: transparent;&quot;&gt;+&amp;nbsp;&lt;/span&gt;&lt;span style=&quot;background-color: transparent;&quot;&gt;getId( ):&amp;nbsp;&lt;/span&gt;&lt;span style=&quot;background-color: transparent;&quot;&gt;UUID&lt;/span&gt;&lt;/div&gt;&lt;div&gt;&lt;span style=&quot;background-color: transparent;&quot;&gt;+&amp;nbsp;&lt;/span&gt;&lt;span style=&quot;background-color: transparent;&quot;&gt;setId(UUID): void&lt;/span&gt;&lt;span style=&quot;background-color: transparent;&quot;&gt;&lt;/span&gt;&lt;/div&gt;&lt;div&gt;&lt;span style=&quot;background-color: transparent;&quot;&gt;+&amp;nbsp;&lt;/span&gt;&lt;span style=&quot;background-color: transparent;&quot;&gt;getTitle():&amp;nbsp;&lt;/span&gt;&lt;span style=&quot;background-color: transparent;&quot;&gt;String&lt;/span&gt;&lt;span style=&quot;background-color: transparent;&quot;&gt;&lt;/span&gt;&lt;/div&gt;&lt;div&gt;&lt;span style=&quot;background-color: transparent;&quot;&gt;+&amp;nbsp;&lt;/span&gt;&lt;span style=&quot;background-color: transparent;&quot;&gt;getAutor():&amp;nbsp;&lt;/span&gt;&lt;span style=&quot;background-color: transparent;&quot;&gt;String&lt;/span&gt;&lt;/div&gt;&lt;/div&gt;&lt;div&gt;&lt;div&gt;&lt;span style=&quot;background-color: transparent;&quot;&gt;+&amp;nbsp;&lt;/span&gt;&lt;span style=&quot;background-color: transparent;&quot;&gt;getYear():&amp;nbsp;&lt;/span&gt;&lt;span style=&quot;background-color: transparent;&quot;&gt;int&lt;/span&gt;&lt;span style=&quot;background-color: transparent;&quot;&gt;&lt;/span&gt;&lt;/div&gt;&lt;div&gt;&lt;span style=&quot;background-color: transparent;&quot;&gt;+&amp;nbsp;&lt;/span&gt;&lt;span style=&quot;background-color: transparent;&quot;&gt;isDisponibilityState():&amp;nbsp;&lt;/span&gt;&lt;span style=&quot;background-color: transparent;&quot;&gt;boolean&lt;/span&gt;&lt;/div&gt;&lt;/div&gt;&lt;div&gt;&lt;span style=&quot;background-color: transparent;&quot;&gt;+&amp;nbsp;&lt;/span&gt;&lt;span style=&quot;background-color: transparent;&quot;&gt;setDisonibilityState(&lt;/span&gt;&lt;span style=&quot;background-color: transparent;&quot;&gt;boolean&lt;/span&gt;&lt;span style=&quot;background-color: transparent;&quot;&gt;):&amp;nbsp;&lt;/span&gt;&lt;span style=&quot;background-color: transparent;&quot;&gt;void&lt;/span&gt;&lt;/div&gt;" style="text;strokeColor=light-dark(#736CA8,#009999);fillColor=none;align=left;verticalAlign=top;spacingLeft=4;spacingRight=4;overflow=hidden;rotatable=0;points=[[0,0.5],[1,0.5]];portConstraint=eastwest;whiteSpace=wrap;html=1;labelBackgroundColor=none;fontColor=light-dark(#000000,#000000);strokeWidth=7;" vertex="1" parent="D1pd8BK4FWZq5NvtcFFm-3">
          <mxGeometry y="128" width="420" height="182" as="geometry" />
        </mxCell>
        <mxCell id="D1pd8BK4FWZq5NvtcFFm-20" style="edgeStyle=orthogonalEdgeStyle;rounded=0;orthogonalLoop=1;jettySize=auto;html=1;entryX=0.5;entryY=0;entryDx=0;entryDy=0;labelBackgroundColor=none;strokeColor=light-dark(#736CA8,#009999);fontColor=light-dark(#000000,#000000);strokeWidth=7;" edge="1" parent="WIyWlLk6GJQsqaUBKTNV-1" source="D1pd8BK4FWZq5NvtcFFm-7" target="D1pd8BK4FWZq5NvtcFFm-11">
          <mxGeometry relative="1" as="geometry" />
        </mxCell>
        <mxCell id="D1pd8BK4FWZq5NvtcFFm-7" value="Loan" style="swimlane;fontStyle=1;align=center;verticalAlign=top;childLayout=stackLayout;horizontal=1;startSize=26;horizontalStack=0;resizeParent=1;resizeParentMax=0;resizeLast=0;collapsible=1;marginBottom=0;whiteSpace=wrap;html=1;labelBackgroundColor=none;fillColor=#5D7F99;strokeColor=light-dark(#736CA8,#009999);fontColor=light-dark(#000000,#000000);strokeWidth=7;" vertex="1" parent="WIyWlLk6GJQsqaUBKTNV-1">
          <mxGeometry x="-190" y="-90" width="420" height="230" as="geometry" />
        </mxCell>
        <mxCell id="D1pd8BK4FWZq5NvtcFFm-8" value="&lt;div&gt;- id: UUID&lt;div&gt;- title: String&lt;/div&gt;&lt;/div&gt;&lt;div&gt;- autor: String&lt;/div&gt;- operation: String&lt;div&gt;- date: LocalDateTime&lt;/div&gt;" style="text;strokeColor=light-dark(#736CA8,#009999);fillColor=none;align=left;verticalAlign=top;spacingLeft=4;spacingRight=4;overflow=hidden;rotatable=0;points=[[0,0.5],[1,0.5]];portConstraint=eastwest;whiteSpace=wrap;html=1;labelBackgroundColor=none;fontColor=light-dark(#000000,#000000);strokeWidth=7;" vertex="1" parent="D1pd8BK4FWZq5NvtcFFm-7">
          <mxGeometry y="26" width="420" height="94" as="geometry" />
        </mxCell>
        <mxCell id="D1pd8BK4FWZq5NvtcFFm-9" value="" style="line;strokeWidth=7;fillColor=none;align=left;verticalAlign=middle;spacingTop=-1;spacingLeft=3;spacingRight=3;rotatable=0;labelPosition=right;points=[];portConstraint=eastwest;strokeColor=light-dark(#736CA8,#009999);labelBackgroundColor=none;fontColor=light-dark(#000000,#000000);" vertex="1" parent="D1pd8BK4FWZq5NvtcFFm-7">
          <mxGeometry y="120" width="420" height="8" as="geometry" />
        </mxCell>
        <mxCell id="D1pd8BK4FWZq5NvtcFFm-10" value="&lt;div&gt;&lt;font&gt;&lt;span style=&quot;background-color: transparent;&quot;&gt;+&amp;nbsp;&lt;/span&gt;&lt;span style=&quot;background-color: transparent;&quot;&gt;Loan&lt;font&gt;(UUID , String , String ,&amp;nbsp;&lt;/font&gt;&lt;/span&gt;&lt;span&gt;&lt;font style=&quot;&quot;&gt;String&lt;/font&gt;&lt;/span&gt;&lt;span style=&quot;background-color: transparent;&quot;&gt;&lt;font&gt;&amp;nbsp;, &lt;/font&gt;&lt;font&gt;LocalDateTime&lt;/font&gt;&lt;font&gt;&amp;nbsp;):&amp;nbsp;&lt;/font&gt;&lt;/span&gt;&lt;span style=&quot;background-color: transparent;&quot;&gt;void&lt;/span&gt;&lt;/font&gt;&lt;/div&gt;&lt;div&gt;&lt;div&gt;&lt;span style=&quot;background-color: transparent;&quot;&gt;+&amp;nbsp;&lt;/span&gt;&lt;span style=&quot;background-color: transparent;&quot;&gt;getId( ):&amp;nbsp;&lt;/span&gt;&lt;span style=&quot;background-color: transparent;&quot;&gt;UUID&lt;/span&gt;&lt;/div&gt;&lt;div&gt;&lt;span style=&quot;background-color: transparent;&quot;&gt;+&amp;nbsp;&lt;/span&gt;&lt;span style=&quot;background-color: transparent;&quot;&gt;getTitle():&amp;nbsp;&lt;/span&gt;&lt;span style=&quot;background-color: transparent;&quot;&gt;String&lt;/span&gt;&lt;span style=&quot;background-color: transparent;&quot;&gt;&lt;/span&gt;&lt;/div&gt;&lt;div&gt;&lt;span style=&quot;background-color: transparent;&quot;&gt;+&amp;nbsp;&lt;/span&gt;&lt;span style=&quot;background-color: transparent;&quot;&gt;getAutor():&amp;nbsp;&lt;/span&gt;&lt;span style=&quot;background-color: transparent;&quot;&gt;String&lt;/span&gt;&lt;/div&gt;&lt;/div&gt;&lt;div&gt;&lt;div&gt;&lt;span style=&quot;background-color: transparent;&quot;&gt;+&amp;nbsp;&lt;/span&gt;&lt;span style=&quot;background-color: transparent;&quot;&gt;getOperation():&amp;nbsp;&lt;/span&gt;&lt;span style=&quot;background-color: transparent;&quot;&gt;String&lt;/span&gt;&lt;span style=&quot;background-color: transparent;&quot;&gt;&lt;/span&gt;&lt;/div&gt;&lt;div&gt;&lt;span style=&quot;background-color: transparent;&quot;&gt;+&amp;nbsp;&lt;/span&gt;&lt;span style=&quot;background-color: transparent;&quot;&gt;getDate():&amp;nbsp;&lt;/span&gt;&lt;span style=&quot;background-color: transparent;&quot;&gt;LocalDateTime&lt;/span&gt;&lt;/div&gt;&lt;/div&gt;" style="text;strokeColor=light-dark(#736CA8,#009999);fillColor=none;align=left;verticalAlign=top;spacingLeft=4;spacingRight=4;overflow=hidden;rotatable=0;points=[[0,0.5],[1,0.5]];portConstraint=eastwest;whiteSpace=wrap;html=1;labelBackgroundColor=none;fontColor=light-dark(#000000,#000000);strokeWidth=7;" vertex="1" parent="D1pd8BK4FWZq5NvtcFFm-7">
          <mxGeometry y="128" width="420" height="102" as="geometry" />
        </mxCell>
        <mxCell id="D1pd8BK4FWZq5NvtcFFm-11" value="History" style="swimlane;fontStyle=1;align=center;verticalAlign=top;childLayout=stackLayout;horizontal=1;startSize=26;horizontalStack=0;resizeParent=1;resizeParentMax=0;resizeLast=0;collapsible=1;marginBottom=0;whiteSpace=wrap;html=1;labelBackgroundColor=none;fillColor=#5D7F99;strokeColor=light-dark(#736CA8,#009999);fontColor=light-dark(#000000,#000000);strokeWidth=7;" vertex="1" parent="WIyWlLk6GJQsqaUBKTNV-1">
          <mxGeometry x="-190" y="600" width="420" height="170" as="geometry" />
        </mxCell>
        <mxCell id="D1pd8BK4FWZq5NvtcFFm-12" value="- ListLoans: ArrayList&amp;lt;Loan&amp;gt;&lt;div&gt;&lt;br&gt;&lt;/div&gt;" style="text;strokeColor=light-dark(#736CA8,#009999);fillColor=none;align=left;verticalAlign=top;spacingLeft=4;spacingRight=4;overflow=hidden;rotatable=0;points=[[0,0.5],[1,0.5]];portConstraint=eastwest;whiteSpace=wrap;html=1;labelBackgroundColor=none;fontColor=light-dark(#000000,#000000);strokeWidth=7;" vertex="1" parent="D1pd8BK4FWZq5NvtcFFm-11">
          <mxGeometry y="26" width="420" height="24" as="geometry" />
        </mxCell>
        <mxCell id="D1pd8BK4FWZq5NvtcFFm-13" value="" style="line;strokeWidth=7;fillColor=none;align=left;verticalAlign=middle;spacingTop=-1;spacingLeft=3;spacingRight=3;rotatable=0;labelPosition=right;points=[];portConstraint=eastwest;strokeColor=light-dark(#736CA8,#009999);labelBackgroundColor=none;fontColor=light-dark(#000000,#000000);" vertex="1" parent="D1pd8BK4FWZq5NvtcFFm-11">
          <mxGeometry y="50" width="420" height="8" as="geometry" />
        </mxCell>
        <mxCell id="D1pd8BK4FWZq5NvtcFFm-14" value="&lt;div&gt;&lt;span style=&quot;background-color: transparent;&quot;&gt;+&amp;nbsp;&lt;/span&gt;&lt;span style=&quot;background-color: transparent;&quot;&gt;addLoanList&lt;font&gt;(Loan ):&amp;nbsp;&lt;/font&gt;&lt;/span&gt;&lt;span style=&quot;background-color: transparent;&quot;&gt;void&lt;/span&gt;&lt;/div&gt;&lt;div&gt;&lt;div&gt;&lt;span style=&quot;background-color: transparent;&quot;&gt;+&amp;nbsp;&lt;/span&gt;&lt;span style=&quot;background-color: transparent;&quot;&gt;getListLoans():&amp;nbsp;&lt;/span&gt;&lt;span style=&quot;background-color: transparent;&quot;&gt;&lt;/span&gt;&lt;span style=&quot;background-color: transparent;&quot;&gt;ArrayList&amp;lt;Loan&amp;gt;&lt;/span&gt;&lt;/div&gt;&lt;div&gt;&lt;span style=&quot;background-color: transparent;&quot;&gt;+&amp;nbsp;&lt;/span&gt;&lt;span style=&quot;background-color: transparent;&quot;&gt;setListLoans(&lt;/span&gt;&lt;span style=&quot;background-color: transparent;&quot;&gt;ArrayList&amp;lt;Loan&amp;gt;&amp;nbsp;&lt;/span&gt;&lt;span style=&quot;background-color: transparent;&quot;&gt;):&amp;nbsp;&lt;/span&gt;&lt;span style=&quot;background-color: transparent;&quot;&gt;void&lt;/span&gt;&lt;/div&gt;&lt;/div&gt;&lt;div&gt;&lt;div&gt;&lt;span style=&quot;background-color: transparent;&quot;&gt;+&amp;nbsp;&lt;/span&gt;&lt;span style=&quot;background-color: transparent;&quot;&gt;getLoanBook(&lt;/span&gt;&lt;span style=&quot;background-color: transparent;&quot;&gt;UUID&lt;/span&gt;&lt;span style=&quot;background-color: transparent;&quot;&gt;):&amp;nbsp;&lt;/span&gt;&lt;span style=&quot;background-color: transparent;&quot;&gt;Loan&lt;/span&gt;&lt;/div&gt;&lt;div&gt;&lt;span style=&quot;background-color: transparent;&quot;&gt;+&amp;nbsp;&lt;/span&gt;&lt;span style=&quot;background-color: transparent;&quot;&gt;getListByTitles(&lt;/span&gt;&lt;span style=&quot;background-color: transparent;&quot;&gt;String&lt;/span&gt;&lt;span style=&quot;background-color: transparent;&quot;&gt;):&amp;nbsp;&lt;/span&gt;&lt;span style=&quot;background-color: transparent;&quot;&gt;ArrayList&amp;lt;Loan&amp;gt;&amp;nbsp;&lt;/span&gt;&lt;/div&gt;&lt;/div&gt;&lt;div&gt;&lt;span style=&quot;background-color: transparent;&quot;&gt;+&amp;nbsp;&lt;/span&gt;&lt;span style=&quot;background-color: transparent;&quot;&gt;getListByUUIDS(&lt;/span&gt;&lt;span style=&quot;background-color: transparent;&quot;&gt;UUID&lt;/span&gt;&lt;span style=&quot;background-color: transparent;&quot;&gt;):&amp;nbsp;&amp;nbsp;&lt;/span&gt;&lt;span style=&quot;background-color: transparent;&quot;&gt;ArrayList&amp;lt;Loan&amp;gt;&lt;/span&gt;&lt;/div&gt;&lt;div&gt;+&amp;nbsp;getListByNames(String):&amp;nbsp;ArrayList&amp;lt;Loan&amp;gt;&lt;/div&gt;" style="text;strokeColor=light-dark(#736CA8,#009999);fillColor=none;align=left;verticalAlign=top;spacingLeft=4;spacingRight=4;overflow=hidden;rotatable=0;points=[[0,0.5],[1,0.5]];portConstraint=eastwest;whiteSpace=wrap;html=1;labelBackgroundColor=none;fontColor=light-dark(#000000,#000000);strokeWidth=7;" vertex="1" parent="D1pd8BK4FWZq5NvtcFFm-11">
          <mxGeometry y="58" width="420" height="112" as="geometry" />
        </mxCell>
        <mxCell id="D1pd8BK4FWZq5NvtcFFm-15" value="ListBooks" style="swimlane;fontStyle=1;align=center;verticalAlign=top;childLayout=stackLayout;horizontal=1;startSize=26;horizontalStack=0;resizeParent=1;resizeParentMax=0;resizeLast=0;collapsible=1;marginBottom=0;whiteSpace=wrap;html=1;labelBackgroundColor=none;fillColor=#5D7F99;strokeColor=light-dark(#736CA8,#009999);fontColor=light-dark(#000000,#000000);strokeWidth=7;" vertex="1" parent="WIyWlLk6GJQsqaUBKTNV-1">
          <mxGeometry x="850" y="550" width="420" height="170" as="geometry" />
        </mxCell>
        <mxCell id="D1pd8BK4FWZq5NvtcFFm-16" value="- listBooks: ArrayList&amp;lt;HashMap&amp;lt;UUID, Book&amp;gt;&amp;gt;&lt;div&gt;&lt;br&gt;&lt;/div&gt;" style="text;strokeColor=light-dark(#736CA8,#009999);fillColor=none;align=left;verticalAlign=top;spacingLeft=4;spacingRight=4;overflow=hidden;rotatable=0;points=[[0,0.5],[1,0.5]];portConstraint=eastwest;whiteSpace=wrap;html=1;labelBackgroundColor=none;fontColor=light-dark(#000000,#000000);strokeWidth=7;" vertex="1" parent="D1pd8BK4FWZq5NvtcFFm-15">
          <mxGeometry y="26" width="420" height="24" as="geometry" />
        </mxCell>
        <mxCell id="D1pd8BK4FWZq5NvtcFFm-17" value="" style="line;strokeWidth=7;fillColor=none;align=left;verticalAlign=middle;spacingTop=-1;spacingLeft=3;spacingRight=3;rotatable=0;labelPosition=right;points=[];portConstraint=eastwest;strokeColor=light-dark(#736CA8,#009999);labelBackgroundColor=none;fontColor=light-dark(#000000,#000000);" vertex="1" parent="D1pd8BK4FWZq5NvtcFFm-15">
          <mxGeometry y="50" width="420" height="8" as="geometry" />
        </mxCell>
        <mxCell id="D1pd8BK4FWZq5NvtcFFm-18" value="&lt;div&gt;&lt;span style=&quot;background-color: transparent;&quot;&gt;+&amp;nbsp;&lt;/span&gt;&lt;span style=&quot;background-color: transparent;&quot;&gt;&lt;font&gt;agregarLibroLista&lt;font style=&quot;&quot;&gt;(&lt;/font&gt;&lt;font style=&quot;&quot;&gt;Book&lt;/font&gt;&lt;font style=&quot;&quot;&gt;&amp;nbsp;):&amp;nbsp;&lt;/font&gt;&lt;/font&gt;&lt;/span&gt;&lt;span style=&quot;background-color: transparent;&quot;&gt;void&lt;/span&gt;&lt;/div&gt;&lt;div&gt;&lt;div&gt;&lt;span style=&quot;background-color: transparent;&quot;&gt;+&amp;nbsp;&lt;/span&gt;&lt;span style=&quot;background-color: transparent;&quot;&gt;getListByTitles(&lt;/span&gt;&lt;span style=&quot;background-color: transparent;&quot;&gt;String&lt;/span&gt;&lt;span style=&quot;background-color: transparent;&quot;&gt;):&amp;nbsp;&lt;/span&gt;&lt;span style=&quot;background-color: transparent;&quot;&gt;List&amp;lt;Book&amp;gt;&amp;nbsp;&lt;/span&gt;&lt;/div&gt;&lt;div&gt;&lt;span style=&quot;background-color: transparent;&quot;&gt;+&amp;nbsp;&lt;/span&gt;&lt;span style=&quot;background-color: transparent;&quot;&gt;getListAviable&lt;font style=&quot;&quot;&gt;(&lt;/font&gt;&lt;/span&gt;&lt;span style=&quot;background-color: transparent;&quot;&gt;):&amp;nbsp;&lt;/span&gt;&lt;span style=&quot;background-color: transparent;&quot;&gt;List&amp;lt;Book&amp;gt;&amp;nbsp;&lt;/span&gt;&lt;/div&gt;&lt;/div&gt;&lt;div&gt;&lt;div&gt;&lt;span style=&quot;background-color: transparent;&quot;&gt;+&amp;nbsp;&lt;/span&gt;&lt;span style=&quot;background-color: transparent;&quot;&gt;getListLoan(&lt;/span&gt;&lt;span style=&quot;background-color: transparent;&quot;&gt;):&lt;b&gt;&amp;nbsp;&lt;/b&gt;&lt;/span&gt;&lt;span style=&quot;background-color: transparent;&quot;&gt;&lt;b&gt;List&amp;lt;Book&amp;gt;&lt;/b&gt;&lt;/span&gt;&lt;/div&gt;&lt;div&gt;&lt;span style=&quot;background-color: transparent;&quot;&gt;+&amp;nbsp;&lt;/span&gt;&lt;span style=&quot;background-color: transparent;&quot;&gt;getListBooks(&lt;/span&gt;&lt;span style=&quot;background-color: transparent;&quot;&gt;):&amp;nbsp;&lt;/span&gt;&lt;span style=&quot;background-color: transparent;&quot;&gt;HashMap&amp;lt;UUID, Book&amp;gt;&lt;/span&gt;&lt;/div&gt;&lt;/div&gt;&lt;div&gt;&lt;span style=&quot;background-color: transparent;&quot;&gt;+&amp;nbsp;&lt;/span&gt;&lt;span style=&quot;background-color: transparent;&quot;&gt;getOrderedBooks(&lt;/span&gt;&lt;span style=&quot;background-color: transparent;&quot;&gt;):&amp;nbsp; L&lt;/span&gt;&lt;span style=&quot;background-color: transparent;&quot;&gt;ist&amp;lt;Book&amp;gt;&lt;/span&gt;&lt;/div&gt;&lt;div&gt;+&amp;nbsp;getUnpopularBooks():&amp;nbsp;&lt;span style=&quot;background-color: transparent;&quot;&gt;L&lt;/span&gt;&lt;span style=&quot;background-color: transparent;&quot;&gt;ist&amp;lt;Book&amp;gt;&lt;/span&gt;&lt;/div&gt;" style="text;strokeColor=light-dark(#736CA8,#009999);fillColor=none;align=left;verticalAlign=top;spacingLeft=4;spacingRight=4;overflow=hidden;rotatable=0;points=[[0,0.5],[1,0.5]];portConstraint=eastwest;whiteSpace=wrap;html=1;labelBackgroundColor=none;fontColor=light-dark(#000000,#000000);strokeWidth=7;" vertex="1" parent="D1pd8BK4FWZq5NvtcFFm-15">
          <mxGeometry y="58" width="420" height="112" as="geometry" />
        </mxCell>
        <mxCell id="D1pd8BK4FWZq5NvtcFFm-33" style="edgeStyle=orthogonalEdgeStyle;rounded=0;orthogonalLoop=1;jettySize=auto;html=1;entryX=0;entryY=0.5;entryDx=0;entryDy=0;startSize=11;labelBackgroundColor=none;strokeColor=light-dark(#736CA8,#009999);fontColor=light-dark(#000000,#000000);strokeWidth=7;" edge="1" parent="WIyWlLk6GJQsqaUBKTNV-1" source="D1pd8BK4FWZq5NvtcFFm-21" target="D1pd8BK4FWZq5NvtcFFm-12">
          <mxGeometry relative="1" as="geometry">
            <Array as="points">
              <mxPoint x="-2860" y="-2190" />
              <mxPoint x="-2860" y="638" />
            </Array>
          </mxGeometry>
        </mxCell>
        <mxCell id="D1pd8BK4FWZq5NvtcFFm-34" style="edgeStyle=orthogonalEdgeStyle;rounded=0;orthogonalLoop=1;jettySize=auto;html=1;entryX=0.517;entryY=1.024;entryDx=0;entryDy=0;entryPerimeter=0;exitX=0.007;exitY=-0.158;exitDx=0;exitDy=0;exitPerimeter=0;labelBackgroundColor=none;strokeColor=light-dark(#736CA8,#009999);fontColor=light-dark(#000000,#000000);strokeWidth=7;" edge="1" parent="WIyWlLk6GJQsqaUBKTNV-1" source="D1pd8BK4FWZq5NvtcFFm-22" target="D1pd8BK4FWZq5NvtcFFm-18">
          <mxGeometry relative="1" as="geometry">
            <mxPoint x="-430" y="900" as="targetPoint" />
            <Array as="points">
              <mxPoint x="-967" y="-2237" />
              <mxPoint x="-2970" y="-2237" />
              <mxPoint x="-2970" y="910" />
              <mxPoint x="1067" y="910" />
            </Array>
          </mxGeometry>
        </mxCell>
        <mxCell id="D1pd8BK4FWZq5NvtcFFm-21" value="Serialitation" style="swimlane;fontStyle=1;align=center;verticalAlign=top;childLayout=stackLayout;horizontal=1;startSize=26;horizontalStack=0;resizeParent=1;resizeParentMax=0;resizeLast=0;collapsible=1;marginBottom=0;whiteSpace=wrap;html=1;labelBackgroundColor=none;fillColor=#5D7F99;strokeColor=light-dark(#736CA8,#009999);fontColor=light-dark(#000000,#000000);strokeWidth=7;" vertex="1" parent="WIyWlLk6GJQsqaUBKTNV-1">
          <mxGeometry x="-970" y="-2280" width="420" height="180" as="geometry" />
        </mxCell>
        <mxCell id="D1pd8BK4FWZq5NvtcFFm-22" value="-&amp;nbsp;posters : Posters" style="text;strokeColor=light-dark(#736CA8,#009999);fillColor=none;align=left;verticalAlign=top;spacingLeft=4;spacingRight=4;overflow=hidden;rotatable=0;points=[[0,0.5],[1,0.5]];portConstraint=eastwest;whiteSpace=wrap;html=1;labelBackgroundColor=none;fontColor=light-dark(#000000,#000000);strokeWidth=7;" vertex="1" parent="D1pd8BK4FWZq5NvtcFFm-21">
          <mxGeometry y="26" width="420" height="34" as="geometry" />
        </mxCell>
        <mxCell id="D1pd8BK4FWZq5NvtcFFm-23" value="" style="line;strokeWidth=7;fillColor=none;align=left;verticalAlign=middle;spacingTop=-1;spacingLeft=3;spacingRight=3;rotatable=0;labelPosition=right;points=[];portConstraint=eastwest;strokeColor=light-dark(#736CA8,#009999);labelBackgroundColor=none;fontColor=light-dark(#000000,#000000);" vertex="1" parent="D1pd8BK4FWZq5NvtcFFm-21">
          <mxGeometry y="60" width="420" height="8" as="geometry" />
        </mxCell>
        <mxCell id="D1pd8BK4FWZq5NvtcFFm-24" value="&lt;div&gt;&lt;span style=&quot;background-color: transparent;&quot;&gt;+&amp;nbsp;&lt;/span&gt;&lt;span style=&quot;background-color: transparent;&quot;&gt;detectarSistema&lt;font&gt;():&amp;nbsp;&lt;/font&gt;&lt;/span&gt;&lt;span style=&quot;background-color: transparent;&quot;&gt;String&lt;/span&gt;&lt;/div&gt;&lt;div&gt;&lt;span style=&quot;background-color: transparent;&quot;&gt;+&amp;nbsp;&lt;/span&gt;&lt;span style=&quot;background-color: transparent;&quot;&gt;validarListaLibrosExistente():&amp;nbsp;&lt;/span&gt;&lt;span style=&quot;background-color: transparent;&quot;&gt;boolean&lt;/span&gt;&lt;span style=&quot;background-color: transparent;&quot;&gt;&lt;/span&gt;&lt;/div&gt;&lt;div&gt;&lt;span style=&quot;background-color: transparent;&quot;&gt;+&amp;nbsp;&lt;/span&gt;&lt;span style=&quot;background-color: transparent;&quot;&gt;ValidateListLoanExist():&amp;nbsp;&lt;/span&gt;&lt;span style=&quot;background-color: transparent;&quot;&gt;boolean&lt;/span&gt;&lt;span style=&quot;background-color: transparent;&quot;&gt;&lt;/span&gt;&lt;/div&gt;&lt;div&gt;&lt;div&gt;&lt;span style=&quot;background-color: transparent;&quot;&gt;+&amp;nbsp;&lt;/span&gt;&lt;span style=&quot;background-color: transparent;&quot;&gt;serealizarListaDeLibros(&amp;nbsp;&lt;/span&gt;&lt;span style=&quot;background-color: transparent;&quot;&gt;ListBooks&lt;/span&gt;&lt;span style=&quot;background-color: transparent;&quot;&gt;): void&lt;/span&gt;&lt;/div&gt;&lt;div&gt;&lt;span style=&quot;background-color: transparent;&quot;&gt;+&amp;nbsp;&lt;/span&gt;&lt;span style=&quot;background-color: transparent;&quot;&gt;deserealizacionListaDeLibros(&lt;/span&gt;&lt;span style=&quot;background-color: transparent;&quot;&gt;ListBooks&lt;/span&gt;&lt;span style=&quot;background-color: transparent;&quot;&gt;): void&lt;/span&gt;&lt;/div&gt;&lt;div&gt;&lt;span style=&quot;background-color: transparent;&quot;&gt;+&amp;nbsp;&lt;/span&gt;&lt;span style=&quot;background-color: transparent;&quot;&gt;serealizarListaDePrestamos(&lt;/span&gt;&lt;span style=&quot;background-color: transparent;&quot;&gt;History&lt;/span&gt;&lt;span style=&quot;background-color: transparent;&quot;&gt;): void&lt;/span&gt;&lt;/div&gt;&lt;div&gt;&lt;span style=&quot;background-color: transparent;&quot;&gt;+&amp;nbsp;&lt;/span&gt;&lt;span style=&quot;background-color: transparent;&quot;&gt;deserealizacionListaDePrestamos():&amp;nbsp;&lt;/span&gt;&lt;span style=&quot;background-color: transparent;&quot;&gt;History&lt;/span&gt;&lt;/div&gt;&lt;/div&gt;&lt;div&gt;&lt;span style=&quot;background-color: transparent;&quot;&gt;&lt;br&gt;&lt;/span&gt;&lt;/div&gt;" style="text;strokeColor=light-dark(#736CA8,#009999);fillColor=none;align=left;verticalAlign=top;spacingLeft=4;spacingRight=4;overflow=hidden;rotatable=0;points=[[0,0.5],[1,0.5]];portConstraint=eastwest;whiteSpace=wrap;html=1;labelBackgroundColor=none;fontColor=light-dark(#000000,#000000);strokeWidth=7;" vertex="1" parent="D1pd8BK4FWZq5NvtcFFm-21">
          <mxGeometry y="68" width="420" height="112" as="geometry" />
        </mxCell>
        <mxCell id="D1pd8BK4FWZq5NvtcFFm-25" style="edgeStyle=orthogonalEdgeStyle;rounded=0;orthogonalLoop=1;jettySize=auto;html=1;entryX=-0.001;entryY=0.109;entryDx=0;entryDy=0;entryPerimeter=0;labelBackgroundColor=none;strokeColor=light-dark(#736CA8,#009999);fontColor=light-dark(#000000,#000000);strokeWidth=7;" edge="1" parent="WIyWlLk6GJQsqaUBKTNV-1" source="D1pd8BK4FWZq5NvtcFFm-24" target="mlQqwofmlEr076EAXyUb-4">
          <mxGeometry relative="1" as="geometry">
            <mxPoint x="895" y="-1640" as="targetPoint" />
            <Array as="points">
              <mxPoint x="680" y="-2156" />
              <mxPoint x="680" y="-1650" />
              <mxPoint x="895" y="-1650" />
            </Array>
          </mxGeometry>
        </mxCell>
        <mxCell id="D1pd8BK4FWZq5NvtcFFm-29" style="edgeStyle=orthogonalEdgeStyle;rounded=0;orthogonalLoop=1;jettySize=auto;html=1;entryX=1;entryY=0.5;entryDx=0;entryDy=0;labelBackgroundColor=none;strokeColor=light-dark(#736CA8,#009999);fontColor=light-dark(#000000,#000000);strokeWidth=7;" edge="1" parent="WIyWlLk6GJQsqaUBKTNV-1" source="mlQqwofmlEr076EAXyUb-37" target="D1pd8BK4FWZq5NvtcFFm-16">
          <mxGeometry relative="1" as="geometry">
            <Array as="points">
              <mxPoint x="1400" y="588" />
            </Array>
          </mxGeometry>
        </mxCell>
        <mxCell id="D1pd8BK4FWZq5NvtcFFm-31" style="edgeStyle=orthogonalEdgeStyle;rounded=0;orthogonalLoop=1;jettySize=auto;html=1;entryX=1.006;entryY=0.798;entryDx=0;entryDy=0;entryPerimeter=0;labelBackgroundColor=none;strokeColor=light-dark(#736CA8,#009999);fontColor=light-dark(#000000,#000000);strokeWidth=7;" edge="1" parent="WIyWlLk6GJQsqaUBKTNV-1" source="mlQqwofmlEr076EAXyUb-50" target="D1pd8BK4FWZq5NvtcFFm-18">
          <mxGeometry relative="1" as="geometry">
            <mxPoint x="1250" y="198" as="targetPoint" />
            <Array as="points">
              <mxPoint x="2700" y="697" />
            </Array>
          </mxGeometry>
        </mxCell>
        <mxCell id="D1pd8BK4FWZq5NvtcFFm-48" style="edgeStyle=orthogonalEdgeStyle;rounded=0;orthogonalLoop=1;jettySize=auto;html=1;labelBackgroundColor=none;strokeColor=light-dark(#736CA8,#009999);fontColor=light-dark(#000000,#000000);strokeWidth=7;" edge="1" parent="WIyWlLk6GJQsqaUBKTNV-1" source="D1pd8BK4FWZq5NvtcFFm-35" target="D1pd8BK4FWZq5NvtcFFm-44">
          <mxGeometry relative="1" as="geometry" />
        </mxCell>
        <mxCell id="D1pd8BK4FWZq5NvtcFFm-52" style="edgeStyle=orthogonalEdgeStyle;rounded=0;orthogonalLoop=1;jettySize=auto;html=1;entryX=0;entryY=0.5;entryDx=0;entryDy=0;labelBackgroundColor=none;strokeColor=light-dark(#736CA8,#009999);fontColor=light-dark(#000000,#000000);strokeWidth=7;" edge="1" parent="WIyWlLk6GJQsqaUBKTNV-1" source="D1pd8BK4FWZq5NvtcFFm-35" target="mlQqwofmlEr076EAXyUb-5">
          <mxGeometry relative="1" as="geometry" />
        </mxCell>
        <mxCell id="D1pd8BK4FWZq5NvtcFFm-35" value="Reports" style="swimlane;fontStyle=1;align=center;verticalAlign=top;childLayout=stackLayout;horizontal=1;startSize=26;horizontalStack=0;resizeParent=1;resizeParentMax=0;resizeLast=0;collapsible=1;marginBottom=0;whiteSpace=wrap;html=1;labelBackgroundColor=none;fillColor=#5D7F99;strokeColor=light-dark(#736CA8,#009999);fontColor=light-dark(#000000,#000000);strokeWidth=7;" vertex="1" parent="WIyWlLk6GJQsqaUBKTNV-1">
          <mxGeometry x="-1210" y="-1880" width="400" height="160" as="geometry" />
        </mxCell>
        <mxCell id="D1pd8BK4FWZq5NvtcFFm-36" value="&lt;div&gt;- posters: Posters&lt;div&gt;- scanner: Scanner&lt;/div&gt;&lt;/div&gt;&lt;div&gt;- reportsLoans: ReportsLoans&lt;/div&gt;- reportsBooks: ReportsBooks&lt;div&gt;&lt;br&gt;&lt;/div&gt;" style="text;strokeColor=light-dark(#736CA8,#009999);fillColor=none;align=left;verticalAlign=top;spacingLeft=4;spacingRight=4;overflow=hidden;rotatable=0;points=[[0,0.5],[1,0.5]];portConstraint=eastwest;whiteSpace=wrap;html=1;labelBackgroundColor=none;fontColor=light-dark(#000000,#000000);strokeWidth=7;" vertex="1" parent="D1pd8BK4FWZq5NvtcFFm-35">
          <mxGeometry y="26" width="400" height="74" as="geometry" />
        </mxCell>
        <mxCell id="D1pd8BK4FWZq5NvtcFFm-37" value="" style="line;strokeWidth=7;fillColor=none;align=left;verticalAlign=middle;spacingTop=-1;spacingLeft=3;spacingRight=3;rotatable=0;labelPosition=right;points=[];portConstraint=eastwest;strokeColor=light-dark(#736CA8,#009999);labelBackgroundColor=none;fontColor=light-dark(#000000,#000000);" vertex="1" parent="D1pd8BK4FWZq5NvtcFFm-35">
          <mxGeometry y="100" width="400" height="8" as="geometry" />
        </mxCell>
        <mxCell id="D1pd8BK4FWZq5NvtcFFm-38" value="&lt;div style=&quot;text-align: center;&quot;&gt;&lt;span style=&quot;background-color: transparent;&quot;&gt;+ &lt;/span&gt;&lt;span style=&quot;background-color: transparent; font-size: 12px;&quot;&gt;&lt;b&gt;Reports&lt;/b&gt;&lt;/span&gt;&lt;span style=&quot;background-color: transparent;&quot;&gt;(posters,scanner,serialitation): Posters,Scanner,Serialitation&lt;/span&gt;&lt;/div&gt;&lt;div&gt;+ Reports():void&lt;/div&gt;&lt;div&gt;&lt;br&gt;&lt;/div&gt;" style="text;strokeColor=light-dark(#736CA8,#009999);fillColor=none;align=left;verticalAlign=top;spacingLeft=4;spacingRight=4;overflow=hidden;rotatable=0;points=[[0,0.5],[1,0.5]];portConstraint=eastwest;whiteSpace=wrap;html=1;labelBackgroundColor=none;fontColor=light-dark(#000000,#000000);strokeWidth=7;" vertex="1" parent="D1pd8BK4FWZq5NvtcFFm-35">
          <mxGeometry y="108" width="400" height="52" as="geometry" />
        </mxCell>
        <mxCell id="D1pd8BK4FWZq5NvtcFFm-40" value="&lt;span style=&quot;font-size: 12px; font-weight: 400;&quot;&gt;ReportsBooks&lt;/span&gt;" style="swimlane;fontStyle=1;align=center;verticalAlign=top;childLayout=stackLayout;horizontal=1;startSize=26;horizontalStack=0;resizeParent=1;resizeParentMax=0;resizeLast=0;collapsible=1;marginBottom=0;whiteSpace=wrap;html=1;labelBackgroundColor=none;fillColor=#5D7F99;strokeColor=light-dark(#736CA8,#009999);fontColor=light-dark(#000000,#000000);strokeWidth=7;" vertex="1" parent="WIyWlLk6GJQsqaUBKTNV-1">
          <mxGeometry x="-2280" y="-1660" width="470" height="170" as="geometry" />
        </mxCell>
        <mxCell id="D1pd8BK4FWZq5NvtcFFm-41" value="- posters: Posters&lt;div&gt;- scanner: Scanner&lt;/div&gt;&lt;div&gt;- serialitation: Serialitation&lt;/div&gt;" style="text;strokeColor=light-dark(#736CA8,#009999);fillColor=none;align=left;verticalAlign=top;spacingLeft=4;spacingRight=4;overflow=hidden;rotatable=0;points=[[0,0.5],[1,0.5]];portConstraint=eastwest;whiteSpace=wrap;html=1;labelBackgroundColor=none;fontColor=light-dark(#000000,#000000);strokeWidth=7;" vertex="1" parent="D1pd8BK4FWZq5NvtcFFm-40">
          <mxGeometry y="26" width="470" height="54" as="geometry" />
        </mxCell>
        <mxCell id="D1pd8BK4FWZq5NvtcFFm-42" value="" style="line;strokeWidth=7;fillColor=none;align=left;verticalAlign=middle;spacingTop=-1;spacingLeft=3;spacingRight=3;rotatable=0;labelPosition=right;points=[];portConstraint=eastwest;strokeColor=light-dark(#736CA8,#009999);labelBackgroundColor=none;fontColor=light-dark(#000000,#000000);" vertex="1" parent="D1pd8BK4FWZq5NvtcFFm-40">
          <mxGeometry y="80" width="470" height="8" as="geometry" />
        </mxCell>
        <mxCell id="D1pd8BK4FWZq5NvtcFFm-43" value="&lt;div style=&quot;text-align: center;&quot;&gt;&lt;span style=&quot;background-color: transparent;&quot;&gt;+&amp;nbsp;&lt;/span&gt;&lt;span style=&quot;background-color: transparent;&quot;&gt;&lt;span style=&quot;font-size: 12px;&quot;&gt;&lt;b&gt;ReportsBooks&lt;/b&gt;&lt;/span&gt;&lt;font&gt;(posters,scanner,serialitation): Posters,Scanner,Serialitation&lt;/font&gt;&lt;/span&gt;&lt;/div&gt;&lt;div&gt;+ validateExistListBooks(): boolean&lt;/div&gt;&lt;div&gt;+&amp;nbsp;printList(): void&lt;/div&gt;&lt;div&gt;+&amp;nbsp;getListofAvailableBooks(): void&lt;/div&gt;&lt;div&gt;+&amp;nbsp;getListofBorrowedBooks(): void&lt;/div&gt;&lt;div&gt;&lt;br&gt;&lt;/div&gt;" style="text;strokeColor=light-dark(#736CA8,#009999);fillColor=none;align=left;verticalAlign=top;spacingLeft=4;spacingRight=4;overflow=hidden;rotatable=0;points=[[0,0.5],[1,0.5]];portConstraint=eastwest;whiteSpace=wrap;html=1;labelBackgroundColor=none;fontColor=light-dark(#000000,#000000);strokeWidth=7;" vertex="1" parent="D1pd8BK4FWZq5NvtcFFm-40">
          <mxGeometry y="88" width="470" height="82" as="geometry" />
        </mxCell>
        <mxCell id="D1pd8BK4FWZq5NvtcFFm-51" style="edgeStyle=orthogonalEdgeStyle;rounded=0;orthogonalLoop=1;jettySize=auto;html=1;entryX=0;entryY=0;entryDx=0;entryDy=0;labelBackgroundColor=none;strokeColor=light-dark(#736CA8,#009999);fontColor=light-dark(#000000,#000000);strokeWidth=7;" edge="1" parent="WIyWlLk6GJQsqaUBKTNV-1" source="D1pd8BK4FWZq5NvtcFFm-44" target="D1pd8BK4FWZq5NvtcFFm-15">
          <mxGeometry relative="1" as="geometry">
            <mxPoint x="850" y="520" as="targetPoint" />
            <Array as="points">
              <mxPoint x="-1275" y="-440" />
              <mxPoint x="740" y="-440" />
              <mxPoint x="740" y="440" />
              <mxPoint x="850" y="440" />
            </Array>
          </mxGeometry>
        </mxCell>
        <mxCell id="D1pd8BK4FWZq5NvtcFFm-44" value="&lt;span style=&quot;font-size: 12px; font-weight: 400;&quot;&gt;ReportsLoans&lt;/span&gt;" style="swimlane;fontStyle=1;align=center;verticalAlign=top;childLayout=stackLayout;horizontal=1;startSize=26;horizontalStack=0;resizeParent=1;resizeParentMax=0;resizeLast=0;collapsible=1;marginBottom=0;whiteSpace=wrap;html=1;labelBackgroundColor=none;fillColor=#5D7F99;strokeColor=light-dark(#736CA8,#009999);fontColor=light-dark(#000000,#000000);strokeWidth=7;" vertex="1" parent="WIyWlLk6GJQsqaUBKTNV-1">
          <mxGeometry x="-1510" y="-1050" width="470" height="300" as="geometry" />
        </mxCell>
        <mxCell id="D1pd8BK4FWZq5NvtcFFm-45" value="- posters: Posters&lt;div&gt;- scanner: Scanner&lt;/div&gt;&lt;div&gt;- serialitation: Serialitation&lt;/div&gt;" style="text;strokeColor=light-dark(#736CA8,#009999);fillColor=none;align=left;verticalAlign=top;spacingLeft=4;spacingRight=4;overflow=hidden;rotatable=0;points=[[0,0.5],[1,0.5]];portConstraint=eastwest;whiteSpace=wrap;html=1;labelBackgroundColor=none;fontColor=light-dark(#000000,#000000);strokeWidth=7;" vertex="1" parent="D1pd8BK4FWZq5NvtcFFm-44">
          <mxGeometry y="26" width="470" height="54" as="geometry" />
        </mxCell>
        <mxCell id="D1pd8BK4FWZq5NvtcFFm-46" value="" style="line;strokeWidth=7;fillColor=none;align=left;verticalAlign=middle;spacingTop=-1;spacingLeft=3;spacingRight=3;rotatable=0;labelPosition=right;points=[];portConstraint=eastwest;strokeColor=light-dark(#736CA8,#009999);labelBackgroundColor=none;fontColor=light-dark(#000000,#000000);" vertex="1" parent="D1pd8BK4FWZq5NvtcFFm-44">
          <mxGeometry y="80" width="470" height="8" as="geometry" />
        </mxCell>
        <mxCell id="D1pd8BK4FWZq5NvtcFFm-47" value="&lt;div style=&quot;text-align: center;&quot;&gt;&lt;span style=&quot;background-color: transparent;&quot;&gt;+&amp;nbsp;&lt;/span&gt;&lt;span style=&quot;background-color: transparent;&quot;&gt;&lt;font&gt;&lt;span style=&quot;font-size: 12px;&quot;&gt;&lt;b&gt;ReportsLoans&lt;/b&gt;&lt;/span&gt;&lt;font&gt;(posters,scanner,serialitation): Posters,Scanner,Serialitation&lt;/font&gt;&lt;/font&gt;&lt;/span&gt;&lt;/div&gt;&lt;div&gt;+ validateExistListBorrowedBooks(): boolean&lt;/div&gt;&lt;div&gt;+&amp;nbsp;printLoanList(): void&lt;/div&gt;&lt;div&gt;+&amp;nbsp;searchForName(): void&lt;/div&gt;&lt;div&gt;+&amp;nbsp;printByNamesList(): void&lt;/div&gt;&lt;div&gt;&lt;div&gt;+&amp;nbsp;searchForTitle(): void&lt;/div&gt;&lt;div&gt;+&amp;nbsp;printByTitlesList(): void&lt;/div&gt;&lt;/div&gt;&lt;div&gt;&lt;div&gt;+&amp;nbsp;searhBook(): void&lt;/div&gt;&lt;div&gt;+&amp;nbsp;searhForUUID(): void&lt;/div&gt;&lt;/div&gt;&lt;div&gt;&lt;div&gt;+&amp;nbsp;printByUUIDsList(): void&lt;/div&gt;&lt;div&gt;&lt;div&gt;+&amp;nbsp;processPopularityReport(): void&lt;/div&gt;&lt;div&gt;+&amp;nbsp;processUnpopularReport(): void&lt;/div&gt;&lt;/div&gt;&lt;div&gt;&lt;div&gt;+&amp;nbsp;imprimirLista(): void&lt;/div&gt;&lt;div&gt;+&amp;nbsp;getListBorrowd(): void&lt;/div&gt;&lt;/div&gt;&lt;div&gt;&lt;br&gt;&lt;/div&gt;&lt;/div&gt;&lt;div&gt;&lt;br&gt;&lt;/div&gt;" style="text;strokeColor=light-dark(#736CA8,#009999);fillColor=none;align=left;verticalAlign=top;spacingLeft=4;spacingRight=4;overflow=hidden;rotatable=0;points=[[0,0.5],[1,0.5]];portConstraint=eastwest;whiteSpace=wrap;html=1;labelBackgroundColor=none;fontColor=light-dark(#000000,#000000);strokeWidth=7;" vertex="1" parent="D1pd8BK4FWZq5NvtcFFm-44">
          <mxGeometry y="88" width="470" height="212" as="geometry" />
        </mxCell>
        <mxCell id="D1pd8BK4FWZq5NvtcFFm-49" style="edgeStyle=orthogonalEdgeStyle;rounded=0;orthogonalLoop=1;jettySize=auto;html=1;entryX=0.5;entryY=0;entryDx=0;entryDy=0;labelBackgroundColor=none;strokeColor=light-dark(#736CA8,#009999);fontColor=light-dark(#000000,#000000);strokeWidth=7;" edge="1" parent="WIyWlLk6GJQsqaUBKTNV-1" source="D1pd8BK4FWZq5NvtcFFm-36" target="D1pd8BK4FWZq5NvtcFFm-40">
          <mxGeometry relative="1" as="geometry" />
        </mxCell>
        <mxCell id="D1pd8BK4FWZq5NvtcFFm-50" style="edgeStyle=orthogonalEdgeStyle;rounded=0;orthogonalLoop=1;jettySize=auto;html=1;entryX=0;entryY=0;entryDx=0;entryDy=0;labelBackgroundColor=none;strokeColor=light-dark(#736CA8,#009999);fontColor=light-dark(#000000,#000000);strokeWidth=7;" edge="1" parent="WIyWlLk6GJQsqaUBKTNV-1" source="D1pd8BK4FWZq5NvtcFFm-43" target="D1pd8BK4FWZq5NvtcFFm-11">
          <mxGeometry relative="1" as="geometry">
            <Array as="points">
              <mxPoint x="-2085" y="110" />
              <mxPoint x="-1360" y="110" />
              <mxPoint x="-1360" y="600" />
            </Array>
          </mxGeometry>
        </mxCell>
        <mxCell id="D1pd8BK4FWZq5NvtcFFm-53" value="Posters" style="swimlane;fontStyle=1;align=center;verticalAlign=top;childLayout=stackLayout;horizontal=1;startSize=26;horizontalStack=0;resizeParent=1;resizeParentMax=0;resizeLast=0;collapsible=1;marginBottom=0;whiteSpace=wrap;html=1;labelBackgroundColor=none;fillColor=#5D7F99;strokeColor=light-dark(#736CA8,#009999);fontColor=light-dark(#000000,#000000);strokeWidth=7;" vertex="1" parent="WIyWlLk6GJQsqaUBKTNV-1">
          <mxGeometry x="1660" y="-2230" width="420" height="240" as="geometry" />
        </mxCell>
        <mxCell id="D1pd8BK4FWZq5NvtcFFm-54" value="-&amp;nbsp;ANSI_RESET : String&lt;div&gt;-&amp;nbsp;ANSI_BLACK : String&lt;/div&gt;&lt;div&gt;-&amp;nbsp;ANSI_RED : String&lt;/div&gt;&lt;div&gt;-&amp;nbsp;ANSI_GREEN : String&lt;/div&gt;&lt;div&gt;-&amp;nbsp;NEGRITE : String&lt;/div&gt;&lt;div&gt;-&amp;nbsp;ANSI_YELLOW : String&lt;/div&gt;" style="text;strokeColor=light-dark(#736CA8,#009999);fillColor=none;align=left;verticalAlign=top;spacingLeft=4;spacingRight=4;overflow=hidden;rotatable=0;points=[[0,0.5],[1,0.5]];portConstraint=eastwest;whiteSpace=wrap;html=1;labelBackgroundColor=none;fontColor=light-dark(#000000,#000000);strokeWidth=7;" vertex="1" parent="D1pd8BK4FWZq5NvtcFFm-53">
          <mxGeometry y="26" width="420" height="94" as="geometry" />
        </mxCell>
        <mxCell id="D1pd8BK4FWZq5NvtcFFm-55" value="" style="line;strokeWidth=7;fillColor=none;align=left;verticalAlign=middle;spacingTop=-1;spacingLeft=3;spacingRight=3;rotatable=0;labelPosition=right;points=[];portConstraint=eastwest;strokeColor=light-dark(#736CA8,#009999);labelBackgroundColor=none;fontColor=light-dark(#000000,#000000);" vertex="1" parent="D1pd8BK4FWZq5NvtcFFm-53">
          <mxGeometry y="120" width="420" height="8" as="geometry" />
        </mxCell>
        <mxCell id="D1pd8BK4FWZq5NvtcFFm-56" value="&lt;div&gt;&lt;span style=&quot;background-color: transparent;&quot;&gt;+&amp;nbsp;&lt;/span&gt;&lt;span style=&quot;background-color: transparent;&quot;&gt;&lt;font&gt;&lt;span style=&quot;font-size: 12px;&quot;&gt;getANSI_RESET&lt;/span&gt;&lt;font&gt;():&amp;nbsp;&lt;/font&gt;&lt;/font&gt;&lt;/span&gt;&lt;span style=&quot;background-color: transparent;&quot;&gt;String&lt;/span&gt;&lt;/div&gt;&lt;div&gt;&lt;span style=&quot;background-color: transparent;&quot;&gt;+&amp;nbsp;&lt;/span&gt;&lt;span style=&quot;background-color: transparent;&quot;&gt;&lt;span style=&quot;font-size: 12px;&quot;&gt;getANSI_BLACK&lt;/span&gt;():&amp;nbsp;&lt;/span&gt;&lt;span style=&quot;font-size: 12px;&quot;&gt;&lt;span style=&quot;background-color: transparent;&quot;&gt;&lt;/span&gt;&lt;span style=&quot;background-color: transparent;&quot;&gt;String&lt;/span&gt;&lt;/span&gt;&lt;/div&gt;&lt;div&gt;&lt;span style=&quot;background-color: transparent;&quot;&gt;+&amp;nbsp;&lt;/span&gt;&lt;span style=&quot;background-color: transparent;&quot;&gt;&lt;span style=&quot;font-size: 12px;&quot;&gt;getANSI_RED&lt;/span&gt;():&amp;nbsp;&lt;/span&gt;&lt;span style=&quot;font-size: 12px;&quot;&gt;&lt;span style=&quot;background-color: transparent;&quot;&gt;&lt;/span&gt;&lt;span style=&quot;background-color: transparent;&quot;&gt;String&lt;/span&gt;&lt;/span&gt;&lt;/div&gt;&lt;div&gt;&lt;div&gt;&lt;span style=&quot;background-color: transparent;&quot;&gt;+&amp;nbsp;&lt;/span&gt;&lt;span style=&quot;background-color: transparent;&quot;&gt;&lt;span style=&quot;font-size: 12px;&quot;&gt;getNEGRITE&lt;/span&gt;(&amp;nbsp;&lt;/span&gt;&lt;span style=&quot;background-color: transparent;&quot;&gt;ListBooks&lt;/span&gt;&lt;span style=&quot;background-color: transparent;&quot;&gt;):&amp;nbsp;&lt;/span&gt;&lt;span style=&quot;background-color: transparent; font-size: 12px;&quot;&gt;String&lt;/span&gt;&lt;/div&gt;&lt;div&gt;&lt;span style=&quot;background-color: transparent;&quot;&gt;+&amp;nbsp;&lt;/span&gt;&lt;span style=&quot;background-color: transparent;&quot;&gt;&lt;span style=&quot;font-size: 12px;&quot;&gt;getANSI_YELLOW&lt;/span&gt;(&lt;/span&gt;&lt;span style=&quot;background-color: transparent;&quot;&gt;ListBooks&lt;/span&gt;&lt;span style=&quot;background-color: transparent;&quot;&gt;):&amp;nbsp;&lt;/span&gt;&lt;span style=&quot;background-color: transparent; font-size: 12px;&quot;&gt;String&lt;/span&gt;&lt;/div&gt;&lt;div&gt;&lt;span style=&quot;background-color: transparent;&quot;&gt;+&amp;nbsp;&lt;/span&gt;&lt;span style=&quot;background-color: transparent;&quot;&gt;&lt;span style=&quot;font-size: 12px;&quot;&gt;salto&lt;/span&gt;(&lt;/span&gt;&lt;span style=&quot;background-color: transparent;&quot;&gt;History&lt;/span&gt;&lt;span style=&quot;background-color: transparent;&quot;&gt;):&amp;nbsp;&lt;/span&gt;&lt;span style=&quot;background-color: transparent; font-size: 12px;&quot;&gt;String&lt;/span&gt;&lt;/div&gt;&lt;/div&gt;&lt;div&gt;&lt;span style=&quot;background-color: transparent;&quot;&gt;+ metodos de impresion(): void&lt;/span&gt;&lt;/div&gt;" style="text;strokeColor=light-dark(#736CA8,#009999);fillColor=none;align=left;verticalAlign=top;spacingLeft=4;spacingRight=4;overflow=hidden;rotatable=0;points=[[0,0.5],[1,0.5]];portConstraint=eastwest;whiteSpace=wrap;html=1;labelBackgroundColor=none;fontColor=light-dark(#000000,#000000);strokeWidth=7;" vertex="1" parent="D1pd8BK4FWZq5NvtcFFm-53">
          <mxGeometry y="128" width="420" height="112" as="geometry" />
        </mxCell>
        <mxCell id="D1pd8BK4FWZq5NvtcFFm-57" style="edgeStyle=orthogonalEdgeStyle;rounded=0;orthogonalLoop=1;jettySize=auto;html=1;entryX=1.006;entryY=0.398;entryDx=0;entryDy=0;entryPerimeter=0;labelBackgroundColor=none;strokeColor=light-dark(#736CA8,#009999);fontColor=light-dark(#000000,#000000);strokeWidth=7;" edge="1" parent="WIyWlLk6GJQsqaUBKTNV-1" source="D1pd8BK4FWZq5NvtcFFm-53" target="mlQqwofmlEr076EAXyUb-5">
          <mxGeometry relative="1" as="geometry" />
        </mxCell>
        <mxCell id="D1pd8BK4FWZq5NvtcFFm-58" value="&lt;font face=&quot;Times New Roman&quot; style=&quot;font-size: 200px;&quot;&gt;&lt;b style=&quot;&quot;&gt;Diagrama de clases Biblioteca virtual&lt;/b&gt;&lt;/font&gt;" style="rounded=1;whiteSpace=wrap;html=1;arcSize=50;labelBackgroundColor=none;fillColor=#5D7F99;strokeColor=#D0CEE2;fontColor=#1A1A1A;" vertex="1" parent="WIyWlLk6GJQsqaUBKTNV-1">
          <mxGeometry x="-2810" y="1850" width="5870" height="460" as="geometry" />
        </mxCell>
      </root>
    </mxGraphModel>
  </diagram>
</mxfile>
